<?xml version="1.0" standalone="no"?>
<!DOCTYPE svg PUBLIC "-//W3C//DTD SVG 20010904//EN"
 "http://www.w3.org/TR/2001/REC-SVG-20010904/DTD/svg10.dtd">
<svg version="1.0" xmlns="http://www.w3.org/2000/svg"
 width="995.000000pt" height="775.000000pt" viewBox="0 0 995.000000 775.000000"
 preserveAspectRatio="xMidYMid meet">
<metadata>
Created by potrace 1.16, written by Peter Selinger 2001-2019
</metadata>
<g transform="translate(0.000000,775.000000) scale(0.100000,-0.100000)"
fill="#000000" stroke="none">
<path d="M7445 4907 c-183 -19 -371 -97 -512 -211 l-82 -66 -181 0 c-173 0
-180 -1 -180 -20 0 -19 7 -20 130 -20 80 0 130 -4 130 -10 0 -6 -50 -10 -130
-10 l-130 0 0 -100 0 -100 130 0 c80 0 130 -4 130 -10 0 -6 -50 -10 -130 -10
l-130 0 0 -25 0 -25 150 0 150 0 55 53 c30 29 55 59 55 67 0 8 -15 0 -35 -20
-19 -18 -38 -30 -42 -27 -4 4 29 43 72 87 l80 80 309 0 c183 0 306 4 301 9 -6
5 -44 21 -85 37 -69 25 -90 28 -252 32 -98 2 -178 8 -178 12 0 17 190 101 275
121 266 63 567 -52 762 -291 60 -74 134 -217 158 -305 25 -92 31 -293 11 -388
-93 -451 -555 -760 -959 -643 -84 25 -200 77 -242 110 -18 14 -7 16 135 18 85
1 121 4 80 5 -60 3 -79 8 -98 26 -23 21 -33 22 -243 25 l-219 3 -30 -28 c-17
-15 -30 -30 -30 -33 0 -4 40 -6 89 -7 l90 0 45 -40 c116 -102 280 -187 436
-226 84 -21 103 -21 1353 -24 l1267 -4 0 981 0 980 -1177 1 c-648 1 -1196 2
-1218 3 -22 0 -71 -2 -110 -7z"/>
<path d="M0 3930 l0 -981 1328 3 1327 3 100 28 c123 33 280 110 363 178 61 49
63 51 46 70 -14 15 -31 19 -83 19 -57 0 -72 -4 -111 -30 -108 -72 -276 -123
-405 -122 -221 1 -478 136 -619 323 -298 397 -205 942 207 1215 137 91 260
129 417 129 127 0 211 -20 323 -76 55 -28 63 -30 170 -27 l112 3 -70 53 c-82
61 -195 119 -315 159 l-85 28 -1352 3 -1353 2 0 -980z"/>
<path d="M5180 4620 c-200 -5 -232 -8 -290 -29 -151 -53 -198 -93 -628 -523
l-353 -354 76 -12 c73 -11 122 -29 175 -65 l25 -16 176 162 c97 89 255 235
351 324 l176 163 -15 41 c-46 134 107 260 227 188 41 -25 57 -44 71 -81 l11
-28 107 0 c59 0 209 3 333 7 l226 6 11 39 c7 22 29 58 49 80 122 135 335 89
387 -84 28 -96 -7 -192 -94 -253 -39 -28 -49 -30 -126 -30 -77 0 -86 2 -127
31 -30 22 -52 50 -73 92 l-30 61 -332 1 -331 0 -7 -29 c-9 -40 -75 -98 -120
-107 -32 -6 -74 2 -121 22 -6 2 -87 -66 -180 -153 -94 -87 -252 -234 -352
-326 l-182 -169 26 -33 c29 -38 64 -132 64 -172 0 -24 46 18 353 325 193 193
357 352 362 352 6 0 64 -54 130 -120 66 -66 122 -120 125 -120 4 0 16 30 28
68 32 98 29 95 97 83 32 -6 60 -13 62 -15 3 -2 -13 -60 -35 -129 l-39 -125 41
-41 c41 -41 47 -43 252 -92 115 -28 315 -77 444 -109 l235 -57 3 536 c2 295 0
573 -3 619 l-7 82 -476 -2 c-263 -1 -578 -5 -702 -8z"/>
<path d="M5995 4566 c-41 -18 -92 -71 -110 -113 -20 -47 -19 -53 8 -53 16 0
27 11 40 41 39 84 152 117 228 66 49 -32 83 -105 74 -157 -9 -53 -65 -114
-120 -129 -74 -20 -161 24 -187 94 -12 36 -23 41 -47 26 -23 -15 26 -99 77
-135 81 -57 204 -45 268 26 76 83 72 221 -8 295 -53 50 -157 68 -223 39z"/>
<path d="M6951 4486 c-26 -27 -29 -34 -17 -39 23 -9 19 -36 -6 -47 -13 -5 -48
-34 -78 -65 l-55 -55 -152 0 -153 0 0 -361 0 -360 73 60 74 61 -42 44 c-75 78
-96 196 -51 291 28 62 100 127 158 144 34 10 68 37 158 126 l115 114 339 -2
c261 -2 340 -5 343 -14 4 -10 -68 -13 -339 -13 l-343 0 -100 -100 -100 -100
38 0 c21 0 53 -6 71 -14 33 -14 34 -13 72 25 38 39 39 39 114 39 l76 0 49 -50
49 -50 208 0 c132 0 208 -4 208 -10 0 -6 -78 -10 -213 -10 l-213 0 -49 50
c-49 50 -49 50 -115 50 -62 0 -68 -2 -99 -34 l-33 -34 36 -36 35 -36 326 0
c210 0 325 -4 325 -10 0 -6 -113 -10 -318 -10 l-319 0 16 -50 16 -50 44 0 c32
0 51 -6 68 -22 l23 -22 40 39 c22 22 40 44 40 51 0 15 28 26 35 14 4 -6 80
-10 181 -10 102 0 174 -4 174 -9 0 -6 -79 -11 -185 -13 l-185 -3 -42 -42 -42
-43 28 -29 c16 -16 34 -27 41 -25 6 3 18 -2 25 -11 10 -12 42 -15 186 -15 104
0 174 -4 174 -10 0 -5 -78 -10 -192 -12 l-191 -3 -43 45 -43 45 -29 -28 c-23
-22 -37 -27 -80 -27 -36 0 -52 -4 -52 -13 0 -7 -13 -28 -30 -47 -36 -43 -36
-50 -5 -80 l25 -24 31 30 c17 16 35 39 40 52 10 25 37 29 46 7 10 -29 66 -85
84 -85 9 0 22 -7 29 -15 10 -12 47 -15 211 -15 126 0 199 -4 199 -10 0 -6 -73
-10 -199 -10 -123 0 -202 -4 -206 -10 -17 -28 -70 5 -58 36 4 13 -62 74 -80
74 -7 0 -28 -16 -47 -35 l-34 -35 29 -30 c56 -58 65 -60 342 -60 156 0 253 -4
253 -10 0 -9 -535 -20 -560 -12 -6 2 -10 9 -10 16 0 7 -16 27 -35 46 l-35 34
-37 -37 -37 -37 34 -35 34 -35 323 0 c209 0 323 -4 323 -10 0 -6 -116 -10
-327 -10 l-327 0 -38 37 c-28 27 -40 34 -50 25 -10 -8 -35 7 -103 61 -50 40
-105 78 -124 84 -33 12 -35 11 -117 -55 -73 -59 -83 -71 -84 -99 l0 -33 83 0
83 0 59 60 59 60 66 -64 c36 -35 73 -66 83 -70 23 -7 18 -39 -6 -44 -10 -2
-20 5 -26 20 -5 13 -33 47 -63 76 l-54 52 -54 -55 -54 -55 -88 0 -88 0 0 -36
c0 -32 1 -34 16 -20 18 19 45 21 62 4 38 -38 -17 -100 -57 -64 -19 17 -19 16
-23 -42 -2 -44 0 -58 8 -51 13 10 84 6 104 -6 9 -5 11 -4 6 4 -5 8 1 10 23 6
17 -3 30 -2 29 3 -2 5 11 25 29 45 l32 37 206 0 c116 0 214 4 225 10 15 8 23
3 44 -25 l27 -35 132 1 c89 0 144 5 167 15 32 13 25 13 -94 11 -131 -2 -155 5
-121 33 12 10 19 10 27 2 8 -8 57 -12 143 -12 l130 0 52 35 c380 255 408 810
56 1100 l-67 55 -331 0 -331 0 -33 -34z m559 -212 c42 -41 50 -44 98 -44 29 0
52 -4 52 -10 0 -6 -26 -10 -58 -10 -55 0 -60 2 -102 45 l-44 45 -211 0 c-121
0 -215 -4 -221 -10 -13 -13 -38 4 -32 21 4 11 50 13 239 11 l234 -3 45 -45z
m150 -884 c0 -7 -167 -10 -482 -10 l-482 0 -68 -67 c-37 -37 -71 -64 -75 -60
-4 4 24 39 62 77 l69 70 488 0 c319 0 488 -3 488 -10z"/>
<path d="M6717 4098 c-15 -5 -25 -14 -22 -19 4 -5 0 -6 -8 -3 -21 8 -84 -68
-97 -117 -12 -42 -6 -108 12 -144 16 -31 50 -65 60 -59 5 3 7 0 6 -8 -5 -20
89 -49 141 -43 140 16 222 163 161 290 -24 50 -82 101 -101 89 -7 -4 -9 -3 -6
3 14 22 -93 30 -146 11z m112 -113 c78 -40 51 -165 -36 -165 -47 0 -72 16 -89
55 -17 41 -7 73 32 104 31 25 55 26 93 6z"/>
<path d="M3851 3619 c-29 -91 -18 -189 26 -246 l18 -22 120 110 c66 60 120
115 120 122 0 22 -115 60 -196 65 l-77 4 -11 -33z"/>
<path d="M4056 3426 c-68 -64 -116 -118 -112 -124 3 -6 32 -20 64 -32 70 -27
147 -24 213 8 l46 22 -8 48 c-12 74 -61 193 -79 192 -3 -1 -59 -52 -124 -114z"/>
<path d="M5783 3371 l-32 -37 197 -197 c109 -108 201 -197 205 -197 3 0 4 6 2
13 -2 6 45 52 105 102 l110 89 0 66 0 66 -262 67 c-145 37 -270 67 -278 66 -8
0 -29 -18 -47 -38z"/>
<path d="M3630 3296 c-32 -12 -35 -16 -32 -47 10 -102 104 -217 224 -274 87
-42 102 -43 116 -7 46 116 3 245 -103 308 -55 31 -150 41 -205 20z"/>
<path d="M3389 3087 c-98 -95 -185 -188 -195 -207 -13 -24 -19 -57 -19 -105 0
-59 5 -78 30 -123 l29 -53 40 43 c23 24 120 126 217 228 l176 185 -24 35 c-36
51 -63 111 -63 143 0 15 -3 27 -7 27 -5 -1 -87 -78 -184 -173z"/>
<path d="M3465 2813 l-215 -226 38 -23 c75 -45 159 -51 238 -18 17 7 110 93
207 190 l175 178 -56 23 c-32 12 -83 41 -114 63 l-57 40 -216 -227z"/>
<path d="M4000 2926 c-32 -12 -35 -16 -32 -47 10 -101 99 -211 221 -272 99
-50 107 -49 126 15 19 64 19 82 0 144 -39 132 -186 206 -315 160z"/>
<path d="M3766 2730 c-98 -96 -187 -193 -198 -214 -11 -22 -23 -66 -25 -98 -5
-51 -2 -66 27 -125 l33 -66 60 64 c70 73 233 245 320 335 l58 61 -25 31 c-32
37 -57 94 -66 147 l-6 40 -178 -175z"/>
<path d="M3888 2497 c-90 -95 -186 -196 -213 -226 l-50 -53 24 -19 c13 -11 48
-26 77 -35 59 -17 125 -9 183 20 25 14 352 337 359 355 1 4 -18 16 -44 26 -26
10 -75 37 -109 61 l-63 43 -164 -172z"/>
<path d="M4380 2546 c-33 -12 -35 -16 -33 -54 4 -89 88 -191 209 -255 40 -20
79 -37 88 -37 9 0 16 -4 16 -10 0 -28 -108 15 -190 75 l-47 34 -209 -220
c-115 -121 -210 -224 -212 -229 -5 -15 51 -50 105 -66 43 -13 63 -13 107 -4
59 12 138 59 163 97 9 14 22 22 30 19 8 -4 11 -1 7 5 -3 6 55 72 129 148 119
121 137 143 151 191 20 66 20 83 1 146 -18 61 -64 118 -118 146 -51 26 -149
33 -197 14z"/>
<path d="M4192 2389 c-110 -110 -123 -120 -139 -108 -16 12 -17 12 -6 -2 10
-13 4 -23 -37 -64 -93 -91 -113 -200 -58 -309 l24 -47 170 178 c93 98 191 201
217 229 l47 51 -31 42 c-18 23 -39 67 -48 97 l-17 54 -122 -121z"/>
<path d="M4765 2181 c-60 -19 -65 -34 -34 -115 36 -96 132 -180 274 -237 27
-11 28 -13 8 -16 -25 -5 -122 42 -178 87 l-40 32 -39 -44 c-21 -24 -116 -123
-210 -222 -94 -98 -171 -183 -171 -189 0 -19 63 -55 116 -66 53 -12 118 -3
169 24 41 21 361 349 387 396 32 59 38 117 19 183 -38 130 -176 206 -301 167z"/>
<path d="M4513 1977 c-93 -92 -173 -164 -178 -160 -4 5 -5 3 -1 -4 3 -6 -3
-28 -15 -47 -12 -20 -23 -61 -26 -95 -5 -49 -1 -68 20 -115 14 -31 30 -56 36
-56 5 0 105 99 220 221 l211 221 -29 42 c-16 23 -38 69 -49 102 l-20 59 -169
-168z"/>
<path d="M0 15 c0 -13 559 -15 4975 -15 4416 0 4975 2 4975 15 0 13 -559 15
-4975 15 -4416 0 -4975 -2 -4975 -15z"/>
</g>
</svg>
