<!DOCTYPE svg PUBLIC "-//W3C//DTD SVG 20010904//EN" "http://www.w3.org/TR/2001/REC-SVG-20010904/DTD/svg10.dtd">
<svg version="1.0" xmlns="http://www.w3.org/2000/svg" width="861px" height="671px" viewBox="0 0 8610 6710" preserveAspectRatio="xMidYMid meet">
<g id="layer101" fill="#04692d" stroke="none">
<path d="M3910 5500 c0 -5 -18 -10 -40 -10 -32 0 -47 -7 -75 -34 -19 -19 -35 -40 -35 -48 0 -7 -9 -20 -20 -28 -11 -8 -20 -25 -20 -38 0 -13 -4 -31 -9 -41 -7 -12 -5 -32 5 -61 8 -24 13 -54 9 -67 -6 -24 -19 -30 -30 -13 -3 6 -47 10 -96 10 l-90 0 -37 -39 c-20 -21 -44 -49 -53 -61 -22 -28 -32 -116 -19 -160 19 -65 14 -80 -24 -80 -19 0 -38 5 -41 10 -3 6 -26 10 -50 10 -24 0 -47 -4 -50 -10 -3 -5 -19 -10 -36 -10 -28 0 -42 -11 -99 -79 -11 -13 -20 -35 -20 -48 0 -13 -7 -37 -15 -54 -14 -27 -14 -31 0 -45 17 -17 20 -61 5 -84 -7 -12 -14 -12 -43 -2 -59 21 -159 7 -180 -25 -4 -7 -14 -13 -22 -13 -8 0 -20 -10 -26 -22 -7 -13 -16 -26 -22 -29 -26 -18 -36 -189 -12 -213 8 -8 15 -21 15 -30 0 -8 9 -18 20 -21 11 -3 20 -11 20 -16 0 -13 20 -33 43 -42 25 -9 21 -36 -10 -66 -16 -15 -39 -41 -53 -59 -37 -47 -67 -43 -130 18 -36 35 -59 50 -78 50 -16 0 -34 8 -42 20 -8 11 -25 20 -37 20 -13 0 -23 5 -23 10 0 6 -13 10 -30 10 -16 0 -30 4 -30 9 0 4 -24 11 -52 15 -29 3 -75 10 -103 16 -29 5 -522 9 -1162 9 l-1113 1 0 -855 0 -855 1144 0 c753 0 1147 3 1151 10 3 6 22 10 41 10 48 0 123 20 159 42 17 10 38 18 48 18 9 0 17 5 17 10 0 6 7 10 15 10 8 0 23 8 33 18 24 22 59 42 74 42 7 0 19 9 26 20 7 11 19 20 27 20 8 0 15 5 15 11 0 9 245 11 933 8 729 -3 937 -1 949 8 20 17 1300 21 1306 4 2 -6 9 -11 16 -11 6 0 18 -9 26 -20 8 -11 18 -20 22 -20 7 0 36 -21 63 -47 8 -7 22 -13 32 -13 10 0 25 -9 33 -20 8 -11 22 -20 32 -20 10 0 26 -4 36 -9 51 -26 91 -38 165 -48 20 -3 40 -9 43 -14 3 -5 469 -9 1105 -9 l1099 0 0 855 0 856 -1105 -3 c-867 -2 -1107 -6 -1117 -15 -6 -7 -31 -13 -55 -13 -24 0 -43 -4 -43 -10 0 -5 -9 -10 -19 -10 -11 0 -23 -4 -26 -10 -3 -5 -19 -10 -36 -10 -16 0 -29 -4 -29 -10 0 -5 -7 -10 -15 -10 -8 0 -15 -4 -15 -8 0 -5 -16 -16 -35 -25 -19 -9 -35 -21 -35 -27 0 -5 -7 -10 -16 -10 -8 0 -30 -11 -48 -25 -18 -14 -37 -25 -42 -25 -5 0 -18 -11 -28 -24 l-18 -25 -161 5 c-159 5 -162 6 -185 31 -12 14 -32 31 -44 37 -11 6 -26 20 -32 31 -18 31 -33 45 -51 45 -9 0 -30 14 -45 30 -15 17 -32 30 -38 30 -17 0 -34 29 -28 48 4 11 20 32 37 48 33 32 75 75 100 103 20 22 39 97 39 152 0 82 -81 179 -150 179 -11 0 -20 7 -20 15 0 8 -4 15 -10 15 -5 0 -10 -4 -10 -10 0 -5 -13 -10 -30 -10 -38 0 -39 20 -2 60 73 79 79 89 92 149 16 77 6 117 -47 183 -33 40 -46 48 -92 58 -67 15 -133 7 -171 -20 -16 -11 -54 -45 -86 -75 -31 -30 -60 -55 -65 -55 -4 0 -8 38 -8 85 1 87 -4 103 -47 150 -47 52 -79 65 -158 65 -69 0 -78 -2 -98 -25 -12 -14 -27 -25 -34 -25 -6 0 -14 -7 -18 -15 -3 -8 -16 -15 -29 -15 -24 0 -25 3 -25 75 -1 54 -6 79 -17 92 -9 10 -31 35 -48 55 -27 32 -41 38 -92 47 -70 11 -141 1 -158 -23 -7 -8 -26 -19 -43 -22 -26 -5 -33 -3 -39 14 -3 12 -15 24 -26 27 -11 4 -31 17 -44 31 -18 18 -35 24 -70 24 -25 0 -45 5 -45 10 0 6 -4 10 -10 10 -5 0 -10 -4 -10 -10z"/>
</g>
<g id="layer102" fill="#305e46" stroke="none">
<path d="M3793 5456 l-31 -32 99 -105 c55 -57 140 -147 188 -199 l89 -95 -24 -30 c-13 -17 -31 -51 -40 -78 -11 -33 -19 -45 -29 -40 -30 18 -283 270 -297 297 l-15 29 -7 -26 c-5 -23 4 -37 83 -115 50 -49 87 -92 84 -96 -4 -3 0 -6 7 -6 19 0 121 -108 107 -114 -7 -2 -3 -5 8 -6 12 0 -6 -13 -43 -30 -35 -16 -80 -43 -101 -60 l-38 -30 -63 68 c-35 37 -116 123 -181 190 -66 68 -119 127 -119 130 1 13 53 45 84 53 l31 7 -38 1 c-32 1 -44 -5 -75 -38 -58 -61 -72 -83 -71 -111 1 -24 1 -24 11 5 6 17 16 38 23 48 13 18 10 21 292 -272 l91 -95 -34 -49 c-19 -27 -34 -57 -34 -66 0 -9 -4 -23 -10 -31 -7 -11 -30 7 -108 85 -55 55 -116 114 -135 131 -20 17 -47 48 -61 69 -25 37 -26 37 -26 11 0 -22 -5 -26 -27 -26 l-28 -1 28 -15 c31 -17 107 -91 107 -105 0 -5 4 -9 9 -9 12 0 91 -80 91 -92 0 -4 3 -7 8 -6 11 4 106 -92 98 -99 -3 -3 -6 -3 -6 1 0 8 -74 -29 -125 -64 -28 -19 -46 -25 -60 -20 -11 4 -81 72 -156 151 -75 79 -151 159 -168 176 -17 18 -31 36 -31 41 0 4 12 15 28 24 20 13 22 18 10 18 -10 0 -31 -14 -48 -31 -32 -34 -36 -40 -20 -36 6 1 93 -83 194 -188 l183 -189 -29 -40 c-16 -22 -34 -59 -40 -83 -6 -24 -16 -43 -22 -43 -7 0 -26 15 -42 33 -16 17 -76 76 -134 130 -58 54 -115 114 -126 134 -20 32 -23 33 -29 14 -3 -12 -14 -21 -23 -21 -11 -1 -6 -7 13 -17 24 -13 315 -298 315 -308 0 -2 -14 -6 -31 -10 -16 -4 -59 -26 -94 -50 l-64 -43 -94 97 c-180 184 -272 284 -270 292 6 18 -17 8 -28 -12 -6 -12 -7 -19 -2 -16 8 5 274 -264 348 -351 l26 -30 -31 -49 c-17 -26 -33 -65 -37 -86 -3 -21 -10 -36 -14 -35 -5 2 -51 45 -103 97 l-94 93 -34 -34 c-18 -19 -44 -49 -58 -66 -15 -20 -34 -32 -49 -32 -18 0 -21 -3 -12 -13 18 -23 -8 -37 -69 -37 -56 0 -120 22 -120 41 0 6 -4 7 -10 4 -5 -3 -10 -1 -10 4 0 6 -7 11 -15 11 -14 0 -54 18 -65 30 -6 6 -94 26 -185 41 -32 6 -71 7 -85 3 -33 -9 -39 -11 -75 -17 -16 -3 -41 -9 -55 -15 -14 -5 -31 -7 -37 -5 -7 3 -13 0 -13 -5 0 -6 -15 -15 -32 -21 -55 -19 -88 -36 -88 -43 0 -5 -7 -8 -15 -8 -8 0 -15 -4 -15 -10 0 -5 -4 -10 -10 -10 -5 0 -19 -8 -30 -17 -18 -17 -34 -33 -116 -118 -16 -17 -48 -67 -70 -111 -21 -43 -43 -82 -49 -86 -5 -4 -6 -8 -1 -8 5 0 2 -8 -5 -17 -12 -15 -12 -16 1 -8 12 7 13 6 3 -7 -7 -8 -10 -18 -6 -21 3 -4 2 -7 -3 -7 -5 0 -10 -8 -10 -17 -1 -10 -5 -34 -9 -53 -11 -52 -14 -222 -4 -248 5 -13 12 -37 15 -55 3 -18 7 -36 8 -42 1 -5 5 -16 9 -22 5 -7 6 -13 2 -13 -3 0 2 -15 12 -32 9 -18 16 -39 15 -45 -2 -7 2 -13 7 -13 12 0 46 -61 42 -75 -1 -5 1 -7 4 -3 7 6 45 -32 45 -45 0 -9 72 -77 81 -77 5 0 9 -4 9 -9 0 -6 18 -20 40 -32 21 -12 36 -27 33 -32 -3 -6 -1 -7 4 -4 6 4 16 0 23 -8 7 -8 19 -15 27 -15 8 0 11 -5 8 -11 -4 -6 -1 -9 6 -7 8 1 34 -6 59 -16 25 -11 50 -20 55 -21 100 -22 138 -25 223 -23 55 1 98 6 96 10 -3 4 3 9 13 10 32 2 38 4 58 15 11 6 23 11 28 12 4 0 29 12 57 26 27 14 60 23 72 21 13 -3 50 -5 83 -6 l60 -1 -35 -29 c-21 -18 -29 -30 -20 -30 8 0 21 9 28 20 7 11 19 20 27 20 8 0 15 5 15 11 0 9 245 11 934 8 739 -3 938 -1 947 9 10 9 110 12 430 12 237 0 420 4 423 9 4 5 -232 10 -571 10 -622 2 -634 2 -745 56 -84 41 -141 92 -468 421 -173 175 -307 312 -297 305 9 -8 17 -9 17 -3 0 5 21 13 48 17 26 4 69 18 95 31 27 13 56 24 65 24 8 0 42 -27 74 -59 32 -33 58 -58 58 -55 0 3 30 -24 68 -60 37 -36 91 -86 120 -112 28 -26 52 -53 52 -60 0 -8 7 -14 15 -14 8 0 47 -31 86 -70 39 -38 74 -70 78 -70 15 0 43 -39 36 -49 -3 -6 -2 -11 4 -11 7 0 7 -9 0 -28 -13 -37 -7 -80 17 -118 10 -17 21 -31 24 -32 3 -1 22 -8 43 -17 67 -28 138 3 182 78 8 14 30 17 140 19 72 2 201 2 288 1 150 -3 157 -4 157 -23 0 -27 42 -92 76 -119 62 -49 166 -49 234 0 146 106 84 342 -94 357 -30 2 -70 -1 -89 -7 -47 -16 -115 -84 -122 -124 l-6 -32 -137 -3 c-75 -2 -206 0 -289 4 l-152 6 -13 34 c-23 63 -124 98 -186 65 -19 -10 -27 -7 -64 26 -24 21 -64 59 -90 86 -27 26 -48 45 -48 42 0 -3 -29 24 -66 60 -36 36 -70 65 -75 65 -6 0 -7 5 -4 10 3 6 1 10 -5 10 -11 0 -60 44 -206 186 -34 34 -65 59 -68 56 -4 -3 -6 0 -6 5 0 6 4 13 8 15 11 4 62 109 62 127 0 9 4 22 9 30 7 10 19 4 55 -29 25 -23 46 -49 46 -56 0 -8 9 -14 20 -14 11 0 20 -4 20 -8 0 -4 27 -35 60 -67 33 -33 60 -66 60 -72 0 -7 7 -13 15 -13 17 0 145 -130 145 -147 0 -7 6 -13 13 -13 7 0 49 -36 93 -80 43 -44 83 -80 89 -80 5 0 55 45 110 100 55 55 103 100 107 100 5 0 16 -22 23 -50 1 -3 7 -18 13 -33 7 -16 12 -33 12 -38 0 -12 8 -11 69 3 28 6 51 15 51 18 0 4 -13 48 -30 98 -33 101 -34 108 -20 125 6 7 18 22 28 35 9 12 28 25 42 28 14 3 41 9 61 13 19 4 40 10 45 14 5 3 29 8 53 12 24 3 53 10 66 15 13 5 26 6 29 3 3 -3 11 -1 18 4 19 15 119 37 153 34 17 -2 27 1 22 5 -4 4 23 16 60 25 37 10 69 16 72 13 2 -2 9 0 15 5 13 11 78 24 126 25 l35 1 -4 -526 c-4 -476 -2 -526 12 -532 9 -3 105 -6 214 -6 132 0 199 -3 201 -10 2 -6 9 -11 16 -11 6 0 18 -9 26 -20 8 -11 18 -20 22 -20 7 0 36 -21 63 -47 8 -7 22 -13 31 -13 11 0 0 13 -30 33 -26 17 -67 49 -89 70 l-42 38 -152 -5 c-88 -3 -155 -1 -158 4 -10 16 43 23 130 16 56 -5 86 -3 90 4 12 19 -1 22 -113 23 l-110 1 0 86 0 86 111 -1 c82 0 111 3 115 13 3 11 -19 13 -111 10 -83 -2 -113 0 -106 8 5 6 6 14 2 17 -3 4 52 7 124 7 117 0 132 -2 148 -20 13 -15 15 -23 7 -33 -9 -10 4 -28 56 -80 l67 -66 263 -1 c156 -1 262 -5 262 -11 0 -5 -16 -9 -35 -9 -21 0 -38 -6 -41 -14 -8 -20 -48 -25 -214 -31 -132 -4 -174 -11 -142 -22 7 -3 19 -11 27 -20 8 -8 15 -12 15 -9 0 3 19 -5 43 -17 24 -13 65 -29 92 -37 28 -7 55 -17 60 -21 17 -13 221 -8 267 6 24 7 48 14 53 15 43 11 74 26 152 72 35 21 67 38 73 38 5 0 9 3 8 8 -2 8 102 112 113 112 4 0 10 11 13 25 4 16 11 23 18 19 6 -4 8 -3 5 2 -3 5 10 34 28 64 18 30 31 58 29 62 -3 4 -1 8 4 8 5 0 9 6 10 13 0 6 10 43 21 81 15 51 21 101 22 190 1 111 -1 129 -30 216 -18 52 -44 115 -58 140 -15 25 -25 46 -22 48 2 2 -4 8 -13 13 -10 6 -18 17 -18 24 0 8 -5 15 -11 15 -5 0 -7 5 -3 12 4 6 3 8 -4 4 -6 -3 -20 7 -32 24 -12 16 -18 30 -13 30 4 1 -7 7 -24 15 -18 8 -33 19 -33 25 0 5 -6 10 -14 10 -8 0 -16 4 -18 8 -4 11 -118 77 -147 87 -11 3 -21 10 -21 15 0 4 -15 10 -32 13 -49 7 -89 16 -126 28 -17 6 -44 8 -60 5 -24 -4 -101 -15 -142 -20 -9 -1 -22 -6 -29 -11 -8 -4 -32 -7 -53 -7 -23 1 -37 -2 -33 -8 3 -5 -14 -19 -37 -31 -24 -12 -44 -20 -44 -18 -3 7 -44 -34 -44 -43 0 -4 25 -8 55 -8 30 0 55 -4 55 -10 0 -25 -48 -32 -223 -30 -152 1 -184 3 -199 17 -26 23 -22 31 15 36 28 3 27 4 -10 5 -23 1 -45 -3 -49 -9 -3 -6 9 -26 27 -45 l34 -33 190 -1 c105 -1 195 0 200 1 6 1 14 1 18 0 5 -1 5 3 2 9 -4 6 1 18 11 26 15 11 40 13 124 8 145 -9 149 -10 157 -17 9 -10 -159 -3 -175 7 -16 10 -32 -1 -32 -23 0 -15 11 -17 125 -13 126 4 175 -1 175 -18 0 -7 -149 -9 -415 -8 l-415 2 -45 47 c-25 26 -45 50 -45 53 0 2 8 7 18 9 9 3 -12 5 -48 6 -57 1 -67 4 -87 28 -13 14 -33 31 -45 37 -11 6 -26 20 -32 31 -18 31 -33 45 -52 45 -11 0 -2 -13 27 -40 34 -30 41 -42 30 -48 -10 -7 -10 -14 -2 -30 17 -32 13 -46 -16 -59 -27 -12 -111 -34 -143 -37 -9 -1 -20 -5 -25 -8 -12 -7 -183 -50 -207 -53 -10 -1 -21 -4 -24 -8 -15 -15 -46 -6 -76 23 l-31 30 66 67 c37 36 67 70 67 74 0 5 4 9 8 9 5 0 49 40 98 90 49 49 93 88 99 87 5 -2 20 13 33 32 14 20 30 40 38 44 12 7 38 33 85 86 20 22 39 97 39 152 0 82 -81 179 -150 179 -11 0 -20 7 -20 15 0 8 -4 15 -10 15 -5 0 -10 -4 -10 -10 0 -5 -13 -10 -30 -10 -38 0 -39 20 -2 60 73 79 79 89 92 149 16 77 6 117 -47 183 -33 40 -46 48 -92 58 -106 23 -146 8 -261 -99 -30 -28 -57 -51 -61 -51 -4 0 -8 38 -8 85 1 87 -4 103 -47 150 -47 52 -79 65 -158 65 -51 0 -76 -4 -76 -12 0 -6 -3 -8 -7 -5 -3 4 -12 -2 -20 -13 -8 -11 -20 -20 -27 -20 -8 0 -16 -7 -20 -15 -3 -8 -16 -15 -29 -15 -24 0 -25 3 -25 75 -1 54 -6 79 -17 92 -9 10 -31 35 -48 55 -27 32 -41 38 -92 47 -70 11 -144 0 -157 -23 -5 -8 -24 -18 -44 -22 l-35 -6 106 -105 c58 -57 103 -109 100 -114 -4 -5 2 -9 12 -9 10 -1 -13 -16 -52 -34 -38 -19 -83 -45 -100 -59 l-30 -26 -50 53 c-27 30 -108 115 -180 190 -71 76 -131 141 -133 146 -3 9 46 39 83 51 14 5 10 7 -15 7 -26 0 -43 -8 -67 -32z m596 -385 c11 -51 4 -124 -10 -115 -5 3 -6 -2 -3 -10 8 -21 -70 -102 -111 -116 -42 -14 -127 -16 -146 -4 -8 5 -18 9 -23 9 -36 0 5 112 64 176 50 54 147 109 190 109 26 0 29 -4 39 -49z m-344 -261 c-3 -5 -2 -10 3 -10 12 0 28 -58 27 -95 -4 -68 -5 -76 -15 -70 -5 3 -7 0 -4 -9 3 -9 -7 -29 -25 -48 -17 -18 -31 -36 -31 -39 0 -16 -86 -39 -143 -39 -76 1 -96 13 -91 58 9 77 84 165 182 212 37 18 74 36 82 40 20 12 22 12 15 0z m-307 -379 c29 -88 -28 -211 -115 -248 -34 -14 -100 -17 -152 -7 -27 6 -31 11 -31 38 0 81 85 187 193 241 69 34 87 30 105 -24z m-327 -298 c17 -43 18 -113 2 -152 -42 -103 -169 -162 -265 -123 -81 33 22 206 165 277 65 32 85 32 98 -2z m211 -249 c32 -9 58 -22 59 -28 3 -44 -1 -85 -12 -111 -6 -16 -13 -36 -15 -43 -3 -18 -24 -42 -36 -42 -5 0 -6 5 -3 10 3 6 -1 10 -11 10 -17 0 -28 9 -136 112 l-57 54 28 17 c25 14 82 32 115 36 5 1 36 -6 68 -15z m2108 -57 c36 -39 67 -72 70 -72 3 0 4 -6 2 -13 -3 -13 22 -44 30 -36 3 2 11 -2 18 -11 16 -20 22 -19 51 6 34 30 37 4 3 -32 -15 -16 -33 -29 -39 -29 -7 0 -30 20 -53 45 -40 45 -41 45 -106 45 -51 0 -66 3 -66 14 0 9 12 16 28 18 24 3 27 7 27 38 0 28 -4 35 -20 36 -49 2 -52 4 -51 34 2 49 34 36 106 -43z m-2315 -59 c17 -18 59 -58 93 -88 34 -30 62 -59 62 -63 0 -29 -65 -54 -158 -62 -61 -5 -63 -5 -73 22 -23 60 -22 117 1 171 12 29 28 52 34 52 6 0 25 -15 41 -32z m3244 8 c47 -41 121 -118 121 -126 0 -5 6 -15 14 -22 56 -57 103 -229 98 -358 -2 -49 -21 -149 -30 -165 -4 -5 -8 -18 -9 -29 -2 -10 -17 -37 -33 -59 -17 -23 -30 -46 -30 -52 0 -17 -45 -57 -54 -48 -4 4 -4 0 -1 -9 5 -12 -2 -23 -24 -36 -17 -10 -28 -22 -24 -25 3 -4 -1 -7 -10 -7 -10 0 -17 -4 -17 -10 0 -5 -6 -10 -14 -10 -8 0 -16 -4 -18 -9 -4 -13 -22 -13 -281 -12 -242 1 -261 6 -186 43 29 16 64 18 257 18 141 0 222 4 222 10 0 6 -81 10 -223 10 -191 0 -230 -3 -275 -18 -62 -22 -68 -27 -54 -45 8 -10 5 -13 -15 -15 -37 -3 -64 24 -56 56 4 17 1 29 -11 37 -15 12 -15 13 0 19 9 3 22 2 29 -4 17 -14 602 -9 595 5 -4 8 -216 14 -531 15 l-56 0 -77 77 c-42 43 -76 80 -76 84 0 3 17 9 38 12 20 3 46 8 56 13 15 6 17 4 11 -6 -5 -8 -4 -11 2 -7 5 3 21 -7 36 -23 23 -24 38 -30 80 -32 61 -4 78 4 125 55 l34 37 184 0 c116 0 184 4 184 10 0 6 -69 10 -188 10 l-188 0 -39 -40 c-37 -38 -42 -40 -102 -40 -55 0 -65 3 -87 27 l-25 26 36 29 36 28 278 0 c179 0 279 4 279 10 0 9 -79 12 -428 12 l-124 -1 7 27 c10 41 34 62 71 62 18 0 36 5 39 10 3 6 14 10 23 10 18 0 72 -48 72 -64 0 -8 51 -10 157 -8 168 3 188 6 178 23 -5 7 -56 10 -149 9 -77 -1 -146 -1 -153 -1 -7 1 -28 15 -48 32 l-35 31 20 29 c12 15 27 26 34 23 7 -3 19 2 26 11 10 12 39 15 162 15 97 0 147 4 143 10 -4 6 -72 10 -172 10 l-165 0 -28 -30 c-31 -33 -51 -38 -70 -15 -7 8 -28 15 -47 15 -24 0 -41 8 -59 28 -63 68 -59 60 -39 82 10 11 22 20 26 20 15 0 51 -34 60 -57 13 -33 30 -28 65 20 42 57 84 67 274 67 210 0 201 18 -12 23 -95 3 -186 7 -203 9 -23 2 -30 -1 -33 -17 -5 -25 -38 -62 -62 -68 -12 -3 -28 5 -44 24 l-25 28 41 36 42 35 222 0 c138 0 225 4 229 10 4 7 -63 10 -192 11 -109 0 -220 2 -246 4 -38 2 -50 -1 -54 -14 -3 -9 -17 -28 -31 -43 l-24 -26 -34 31 -34 31 27 28 26 28 281 2 c179 2 281 7 281 13 0 6 -102 11 -279 13 l-280 2 -39 -37 c-22 -21 -37 -32 -33 -25 12 21 -38 14 -52 -8 -7 -11 -16 -20 -21 -20 -5 0 -26 -16 -47 -36 -22 -20 -57 -44 -78 -54 l-39 -18 -71 61 c-65 56 -88 87 -65 87 6 0 7 5 4 10 -4 6 19 10 62 10 68 0 69 0 113 -45 24 -25 50 -45 57 -45 6 0 31 21 55 46 24 25 53 50 66 55 23 9 29 33 11 45 -6 3 -22 -6 -35 -22 -22 -27 -23 -28 -24 -7 0 36 -21 38 -48 4 l-25 -32 -18 28 c-10 15 -19 31 -19 36 0 4 183 7 406 7 267 0 403 3 399 10 -9 15 6 12 24 -4z m-1718 -30 c5 3 9 0 9 -5 0 -6 -3 -11 -7 -12 -5 0 -16 -2 -25 -4 -14 -3 -15 0 -5 16 7 11 13 15 15 9 2 -6 8 -8 13 -4z m994 -156 c-16 -17 -36 -30 -44 -30 -10 1 -2 14 23 35 47 42 62 38 21 -5z m111 -47 c-26 -24 -46 -30 -46 -13 0 6 -8 10 -18 10 -10 0 -23 5 -30 12 -9 9 -5 19 20 45 l32 33 33 -32 33 -32 -24 -23z m-328 0 c13 -13 18 -23 12 -23 -6 0 -9 -4 -5 -9 3 -5 -5 -17 -17 -25 -50 -35 -75 -176 -44 -250 24 -58 81 -112 133 -126 38 -11 65 -30 131 -95 45 -45 82 -84 82 -87 0 -18 -46 3 -78 36 l-39 40 -124 3 c-68 2 -129 5 -135 7 -9 3 -11 83 -10 288 2 156 4 291 6 301 3 18 19 8 88 -60z m248 -68 c25 -19 14 -19 -22 0 -16 8 -22 15 -13 15 8 0 24 -7 35 -15z m229 -105 c24 -26 5 -50 -40 -50 -37 0 -46 14 -34 48 11 28 49 29 74 2z m-461 -115 c9 -14 13 -25 8 -25 -5 0 -14 11 -20 25 -6 14 -10 25 -8 25 2 0 11 -11 20 -25z m98 -87 c-9 -9 -15 -9 -24 0 -9 9 -7 12 12 12 19 0 21 -3 12 -12z m-505 -79 c135 -51 152 -245 28 -317 -58 -33 -148 -28 -200 12 -33 26 -65 77 -65 106 0 22 28 8 40 -21 22 -53 70 -81 147 -85 48 -3 63 -1 53 6 -9 6 -10 10 -3 10 7 0 25 14 41 31 35 37 42 110 17 159 -46 89 -177 94 -238 9 -34 -47 -62 -54 -46 -11 33 86 139 134 226 101z m623 -174 c20 -24 6 -28 -15 -5 -10 11 -13 20 -8 20 6 0 16 -7 23 -15z"/>
<path d="M5793 2868 c-11 -13 -24 -73 -15 -63 3 2 11 0 18 -6 17 -14 54 6 54 30 0 16 -29 51 -42 51 -3 0 -10 -6 -15 -12z"/>
</g>
<g id="layer103" fill="#12965a" stroke="none">
<path d="M3792 5455 l-33 -34 35 -33 c20 -18 105 -107 190 -197 l154 -165 -24 -32 c-13 -17 -32 -54 -42 -82 l-17 -50 -146 142 c-81 78 -153 155 -161 171 l-15 28 -7 -26 c-5 -23 11 -42 151 -183 l156 -157 -62 -28 c-34 -16 -79 -42 -100 -59 l-38 -30 -63 68 c-35 37 -116 123 -181 190 -66 68 -119 127 -119 130 1 13 53 45 84 53 l31 7 -38 1 c-32 1 -44 -5 -75 -38 -58 -61 -72 -83 -71 -111 1 -24 1 -24 11 5 6 17 16 38 23 48 13 18 10 21 292 -273 l92 -95 -27 -34 c-14 -20 -33 -57 -42 -83 l-15 -47 -148 147 c-82 81 -155 158 -162 172 l-14 25 -1 -27 c0 -24 -4 -28 -27 -28 l-28 -1 25 -14 c23 -12 320 -299 320 -309 0 -2 -13 -6 -28 -9 -16 -3 -59 -26 -95 -50 l-67 -45 -68 71 c-64 67 -189 199 -261 274 -17 18 -31 36 -31 41 0 4 12 15 28 24 20 13 22 18 10 18 -10 0 -31 -14 -48 -31 -32 -34 -36 -40 -20 -36 6 1 93 -83 194 -188 l183 -189 -30 -42 c-16 -23 -34 -64 -41 -92 l-11 -50 -147 143 c-80 78 -155 157 -166 174 -19 31 -20 32 -27 12 -3 -12 -14 -21 -23 -21 -11 -1 -6 -7 13 -17 24 -13 315 -298 315 -308 0 -2 -14 -6 -31 -10 -16 -4 -59 -26 -94 -50 l-64 -43 -94 97 c-180 184 -272 284 -270 292 6 18 -17 8 -28 -12 -6 -12 -7 -19 -2 -16 8 5 274 -264 348 -351 l26 -30 -31 -49 c-17 -26 -33 -65 -37 -86 -3 -21 -10 -36 -14 -35 -5 2 -51 45 -103 97 l-94 93 -34 -34 c-18 -19 -44 -49 -58 -66 -15 -20 -34 -32 -49 -32 -18 0 -21 -3 -12 -13 32 -39 -100 -53 -164 -17 -19 11 -51 29 -71 40 -19 11 -75 32 -122 46 -117 35 -228 30 -355 -13 -121 -42 -188 -85 -283 -179 -64 -64 -91 -100 -123 -166 -23 -46 -43 -90 -44 -98 -2 -8 -6 -21 -10 -27 -5 -7 -6 -13 -3 -13 3 0 1 -11 -4 -26 -14 -37 -21 -80 -25 -163 -4 -65 0 -98 19 -187 44 -206 210 -407 412 -496 179 -80 374 -74 556 18 26 13 58 22 70 20 13 -3 50 -5 83 -6 l60 -1 -35 -29 c-21 -18 -29 -30 -20 -30 8 0 21 9 28 20 7 11 19 20 27 20 8 0 15 5 15 11 0 9 245 11 934 8 739 -3 938 -1 947 9 10 9 110 12 430 12 237 0 420 4 423 9 4 5 -232 10 -571 10 -622 2 -634 2 -745 56 -83 40 -140 91 -466 418 l-313 314 60 6 c57 6 145 39 157 58 9 15 21 10 51 -17 15 -14 48 -44 73 -67 342 -318 440 -409 469 -434 33 -28 33 -31 22 -66 -23 -70 5 -134 74 -167 73 -35 154 -4 186 71 l13 32 200 -6 c111 -4 240 -7 289 -7 81 0 87 -1 87 -20 0 -27 42 -92 76 -119 62 -49 166 -49 234 0 146 106 84 342 -94 357 -30 2 -70 -1 -89 -7 -49 -17 -115 -84 -123 -127 l-6 -34 -177 0 c-97 0 -226 3 -288 7 -112 6 -112 6 -124 35 -7 16 -27 41 -45 55 -29 21 -41 24 -86 20 -29 -3 -60 -6 -69 -8 -8 -2 -40 18 -70 45 -107 97 -255 232 -329 303 -41 39 -85 80 -98 91 -13 11 -46 41 -73 67 l-49 46 22 32 c13 18 32 60 43 94 l21 63 299 -300 c165 -165 305 -300 310 -300 6 0 57 48 115 105 l105 105 22 -57 c12 -32 22 -64 22 -70 1 -7 6 -13 12 -13 12 0 102 22 107 26 2 1 -10 45 -27 98 -17 53 -31 102 -31 109 0 7 15 29 33 48 28 30 45 38 132 57 55 13 152 36 215 52 162 42 445 110 454 110 4 0 4 -239 0 -531 -6 -450 -5 -532 7 -540 8 -4 104 -8 214 -8 134 0 201 -3 203 -10 2 -6 9 -11 16 -11 6 0 18 -9 26 -20 8 -11 18 -20 22 -20 7 0 36 -21 63 -47 8 -7 22 -13 31 -13 11 0 0 13 -30 33 -26 17 -67 49 -89 70 l-42 38 -154 -3 c-117 -2 -155 0 -158 10 -4 9 23 12 111 12 71 0 116 4 116 10 0 11 1 11 -132 12 l-98 1 0 87 0 86 112 -1 c83 0 112 3 116 13 3 11 -20 13 -112 10 -105 -3 -116 -1 -116 15 0 15 13 17 133 17 l133 0 49 -50 c50 -51 54 -72 4 -24 -15 14 -29 22 -32 17 -3 -5 24 -39 61 -76 l67 -66 269 -1 c151 -1 265 -5 260 -10 -5 -5 -38 -19 -74 -31 -54 -19 -91 -24 -217 -27 -84 -2 -153 -7 -153 -11 0 -15 155 -83 233 -103 295 -75 631 104 767 408 47 104 60 169 60 304 0 110 -3 131 -32 217 -44 134 -132 262 -239 349 -50 41 -153 95 -228 122 -152 52 -338 33 -495 -51 -83 -45 -83 -57 1 -57 l68 0 -32 -21 c-30 -19 -46 -21 -215 -19 -153 1 -185 3 -200 17 -26 23 -22 31 15 36 28 3 27 4 -10 5 -23 1 -45 -3 -49 -9 -3 -6 9 -26 27 -45 l34 -33 193 -2 192 -1 27 27 c27 26 28 27 150 23 82 -2 126 -7 135 -16 10 -10 -4 -12 -73 -9 -46 2 -90 7 -97 11 -16 10 -32 -1 -32 -22 0 -16 13 -17 138 -14 l138 4 65 -49 c278 -214 312 -626 71 -880 -95 -100 -72 -94 -399 -93 -277 0 -288 1 -309 21 -18 17 -21 25 -12 39 10 15 1 27 -57 81 -63 59 -72 64 -114 65 -25 0 -85 1 -133 2 l-88 2 0 305 c0 168 3 305 8 305 4 0 32 -23 62 -50 l55 -49 -32 -33 c-43 -45 -63 -96 -63 -165 0 -101 62 -188 152 -215 33 -9 67 -36 143 -110 l99 -98 296 2 c186 2 294 7 293 13 -3 8 -215 14 -534 15 l-56 0 -77 77 c-42 43 -76 81 -76 85 0 4 11 8 24 8 14 0 37 5 52 10 25 10 31 7 63 -26 35 -35 37 -36 101 -32 63 3 68 5 104 46 l38 42 184 0 c116 0 184 4 184 10 0 6 -69 10 -188 10 l-188 0 -39 -40 c-37 -38 -42 -40 -102 -40 -54 0 -65 3 -87 26 l-24 26 33 29 33 29 281 0 c181 0 281 4 281 10 0 6 -98 10 -275 10 -151 0 -275 3 -275 6 0 4 5 24 12 45 11 37 13 39 51 39 24 0 48 7 59 17 17 16 20 15 53 -17 19 -19 35 -39 35 -44 0 -8 52 -10 157 -8 168 3 188 6 178 23 -5 7 -57 10 -154 8 -154 -3 -169 1 -210 45 l-24 26 22 24 c13 14 29 22 35 20 7 -3 19 2 26 11 10 12 39 15 162 15 97 0 147 4 143 10 -4 6 -72 10 -172 10 l-166 0 -32 -37 -33 -38 -24 23 c-17 15 -37 22 -64 22 -36 0 -43 4 -73 46 l-32 46 22 24 23 24 24 -22 c13 -13 28 -33 33 -45 13 -34 30 -28 67 22 19 26 41 45 52 45 10 0 22 5 25 10 4 6 73 10 175 10 102 0 171 4 175 10 4 7 -53 10 -165 10 -112 0 -177 4 -189 12 -24 14 -51 4 -51 -20 0 -19 -49 -72 -66 -72 -6 0 -23 13 -38 29 l-27 28 42 37 43 36 222 0 c138 0 225 4 229 10 4 7 -71 10 -217 10 -123 0 -233 3 -245 6 -18 5 -25 1 -32 -17 -5 -13 -20 -34 -33 -46 l-24 -23 -32 33 -32 33 28 27 28 27 279 2 c178 2 280 7 280 13 0 6 -102 11 -279 13 l-280 2 -36 -35 c-27 -26 -39 -32 -47 -24 -9 9 -31 -4 -87 -50 -41 -34 -90 -68 -107 -75 -32 -13 -33 -13 -105 48 -50 42 -73 68 -74 84 0 21 4 22 73 22 l73 0 44 -45 c24 -25 49 -45 55 -45 6 0 31 21 55 46 25 25 55 50 68 55 12 5 22 15 22 23 0 34 -23 24 -76 -33 -31 -34 -62 -61 -69 -61 -6 0 -30 20 -53 45 l-41 45 -75 0 -76 0 0 32 c0 29 1 30 13 14 8 -11 23 -17 38 -14 19 2 24 9 24 33 0 26 -4 30 -29 33 -16 2 -32 -2 -37 -10 -6 -8 -9 5 -9 35 0 67 23 63 101 -18 l62 -65 429 0 c284 0 427 3 423 10 -4 6 -156 10 -423 10 l-418 0 -47 48 c-52 53 -55 59 -29 65 9 3 -12 5 -48 6 -57 1 -67 4 -87 28 -13 14 -33 31 -45 37 -11 6 -26 20 -32 31 -18 31 -33 45 -52 45 -12 0 -5 -11 24 -36 39 -33 42 -39 42 -88 l0 -53 -67 -15 c-38 -9 -143 -35 -235 -59 l-167 -44 -31 30 c-16 16 -30 31 -30 35 0 12 320 325 333 325 6 0 23 16 36 35 13 19 29 39 37 43 12 7 38 33 85 86 20 22 39 97 39 152 0 82 -81 179 -150 179 -11 0 -20 7 -20 15 0 8 -4 15 -10 15 -5 0 -10 -4 -10 -10 0 -5 -13 -10 -30 -10 -38 0 -39 20 -2 60 73 79 79 89 92 149 16 77 6 117 -47 183 -33 40 -46 48 -92 58 -106 23 -146 8 -261 -99 -30 -28 -57 -51 -61 -51 -4 0 -8 38 -8 85 1 87 -4 103 -47 150 -47 52 -79 65 -158 65 -51 0 -76 -4 -76 -12 0 -6 -3 -8 -7 -5 -3 4 -12 -2 -20 -13 -8 -11 -20 -20 -27 -20 -8 0 -16 -7 -20 -15 -3 -8 -16 -15 -29 -15 -24 0 -25 3 -25 75 -1 54 -6 79 -17 92 -9 10 -31 35 -48 55 -27 32 -41 38 -92 47 -70 11 -144 0 -157 -23 -5 -8 -24 -18 -43 -22 l-35 -6 115 -116 116 -115 -68 -33 c-37 -18 -81 -43 -98 -57 l-30 -26 -50 53 c-27 30 -108 115 -180 190 -71 76 -131 141 -133 146 -3 9 46 39 83 51 14 5 10 7 -15 7 -27 0 -43 -8 -68 -33z m601 -435 c0 -31 -7 -68 -16 -85 -21 -40 -75 -91 -111 -105 -39 -14 -124 -15 -160 -1 -25 10 -28 15 -23 40 19 95 90 178 192 225 33 15 67 31 75 36 22 11 43 -42 43 -110z m-317 -288 c9 -47 -12 -119 -46 -155 -17 -18 -30 -35 -30 -38 0 -16 -86 -39 -143 -39 -79 1 -102 16 -92 62 18 84 92 166 191 212 32 15 66 31 74 36 17 9 34 -21 46 -78z m594 -35 c0 -2 -17 -19 -37 -38 l-38 -34 34 38 c33 34 41 42 41 34z m-932 -266 c30 -89 -27 -211 -115 -248 -34 -14 -100 -17 -152 -7 -27 6 -31 11 -31 38 0 81 85 187 193 241 69 34 87 30 105 -24z m-327 -298 c17 -43 18 -113 2 -152 -42 -103 -169 -162 -265 -123 -81 33 22 206 165 277 65 32 85 32 98 -2z m210 -249 c59 -18 69 -27 69 -63 0 -29 -35 -128 -55 -155 -13 -18 -21 -13 -120 79 -105 97 -105 98 -83 114 20 14 96 39 124 40 6 1 35 -6 65 -15z m-137 -178 c56 -54 96 -98 92 -104 -11 -17 -133 -52 -182 -52 -39 0 -46 3 -55 28 -23 59 -22 116 1 170 12 29 28 52 34 52 6 -1 55 -43 110 -94z m1465 40 c9 -11 3 -15 -30 -24 l-41 -10 23 24 c26 28 32 29 48 10z m1001 -141 c-24 -25 -51 -45 -60 -45 -16 1 78 89 95 90 5 0 -11 -20 -35 -45z m95 -63 c-25 -23 -27 -23 -60 -8 -18 9 -39 16 -46 16 -7 0 5 18 26 40 l39 40 33 -32 33 -32 -25 -24z m-79 -67 c25 -19 14 -19 -22 0 -16 8 -22 15 -13 15 8 0 24 -7 35 -15z m229 -105 c26 -28 4 -52 -44 -48 -33 3 -36 6 -39 36 -3 30 -2 32 31 32 21 0 41 -7 52 -20z m-461 -115 c9 -14 13 -25 8 -25 -5 0 -14 11 -20 25 -6 14 -10 25 -8 25 2 0 11 -11 20 -25z m98 -87 c-9 -9 -15 -9 -24 0 -9 9 -7 12 12 12 19 0 21 -3 12 -12z m-505 -79 c135 -51 152 -245 28 -317 -86 -49 -215 -11 -251 74 -19 45 -18 54 6 54 14 0 20 -7 20 -21 0 -32 63 -86 108 -94 48 -8 109 15 136 52 27 36 32 111 12 152 -50 96 -200 92 -246 -6 -15 -33 -58 -49 -46 -17 3 9 6 20 6 24 0 18 65 83 95 96 37 16 94 18 132 3z"/>
<path d="M4005 5475 c50 -18 50 -18 31 0 -8 8 -27 15 -43 15 -26 -1 -25 -2 12 -15z"/>
<path d="M3733 5374 c-7 -7 -12 -23 -12 -36 1 -21 2 -21 6 -3 3 11 10 26 16 33 14 17 5 23 -10 6z"/>
<path d="M3706 5294 c-3 -9 -2 -23 4 -32 7 -14 9 -10 10 16 0 35 -5 41 -14 16z"/>
<path d="M3392 4960 c0 -19 2 -27 5 -17 2 9 2 25 0 35 -3 9 -5 1 -5 -18z"/>
<path d="M3237 4843 c-3 -5 19 -8 48 -8 29 0 51 3 48 8 -2 4 -24 7 -48 7 -24 0 -46 -3 -48 -7z"/>
<path d="M3085 4729 c-10 -30 0 -33 13 -4 6 14 7 25 2 25 -5 0 -12 -9 -15 -21z"/>
<path d="M3057 4636 c-4 -10 -5 -21 -2 -24 9 -9 17 6 13 25 -3 17 -4 17 -11 -1z"/>
<path d="M2903 4522 c-6 -4 20 -7 57 -7 37 0 63 3 57 7 -7 4 -32 8 -57 8 -25 0 -50 -4 -57 -8z"/>
<path d="M2846 4495 c-4 -13 -2 -14 14 -5 23 13 26 20 6 20 -8 0 -16 -7 -20 -15z"/>
<path d="M2765 4409 c-10 -30 -2 -32 12 -3 6 13 7 24 3 24 -5 0 -12 -9 -15 -21z"/>
<path d="M2750 4254 c0 -10 5 -26 10 -34 8 -11 9 -7 4 15 -8 37 -14 45 -14 19z"/>
<path d="M558 4153 c309 -2 815 -2 1125 0 309 1 56 2 -563 2 -619 0 -872 -1 -562 -2z"/>
<path d="M6508 4153 c12 -2 30 -2 40 0 9 3 -1 5 -23 4 -22 0 -30 -2 -17 -4z"/>
<path d="M7088 4153 c283 -2 742 -2 1020 0 279 1 48 2 -513 2 -561 0 -789 -1 -507 -2z"/>
<path d="M2263 4143 c9 -2 25 -2 35 0 9 3 1 5 -18 5 -19 0 -27 -2 -17 -5z"/>
<path d="M2820 4146 c0 -11 30 -39 36 -34 2 3 -5 13 -16 23 -11 10 -20 15 -20 11z"/>
<path d="M6408 4143 c12 -2 32 -2 45 0 12 2 2 4 -23 4 -25 0 -35 -2 -22 -4z"/>
<path d="M2380 4126 c0 -2 11 -6 25 -8 14 -3 25 -1 25 3 0 5 -11 9 -25 9 -14 0 -25 -2 -25 -4z"/>
<path d="M6290 4121 c0 -4 11 -6 25 -3 14 2 25 6 25 8 0 2 -11 4 -25 4 -14 0 -25 -4 -25 -9z"/>
<path d="M5390 4085 c13 -14 27 -25 32 -25 5 0 -2 11 -16 25 -14 14 -28 25 -32 25 -4 0 3 -11 16 -25z"/>
<path d="M2581 4047 c12 -9 79 -46 79 -43 0 14 -42 46 -60 46 -13 0 -21 -1 -19 -3z"/>
<path d="M5985 3957 c-24 -15 -57 -49 -51 -54 2 -2 21 12 42 31 41 37 43 43 9 23z"/>
<path d="M5803 3745 c-3 -9 -4 -17 -2 -18 2 -1 18 -12 36 -24 29 -21 63 -22 63 -3 0 5 9 12 20 15 22 7 27 30 9 41 -7 4 -22 -7 -37 -26 l-25 -32 -19 31 c-22 34 -36 39 -45 16z"/>
<path d="M6495 3029 l-40 -40 -200 2 c-159 2 -200 -1 -200 -11 0 -10 42 -13 205 -11 l205 2 40 40 c36 34 46 39 88 39 30 0 46 4 42 10 -3 6 -28 10 -54 10 -42 0 -51 -4 -86 -41z"/>
<path d="M6138 2861 c-33 -11 -48 -22 -48 -33 0 -24 15 -23 51 5 29 21 40 22 265 25 139 2 234 7 234 13 0 5 -90 9 -227 8 -184 -1 -237 -4 -275 -18z"/>
<path d="M5787 2863 c-12 -11 -7 -50 7 -62 19 -16 56 2 56 27 0 32 -43 56 -63 35z"/>
<path d="M6120 2565 c0 -12 29 -35 44 -35 9 0 25 -4 36 -10 11 -5 29 -14 40 -20 11 -5 28 -10 37 -10 10 1 -9 12 -42 25 -33 14 -72 32 -87 40 -16 9 -28 13 -28 10z"/>
<path d="M2546 2545 c-17 -13 -18 -15 -3 -15 9 0 17 4 17 9 0 5 8 12 18 14 12 3 13 5 2 6 -8 0 -24 -6 -34 -14z"/>
<path d="M2435 2500 c-27 -10 -61 -19 -75 -20 -14 -1 -19 -4 -12 -7 17 -7 112 16 137 33 26 18 11 16 -50 -6z"/>
<path d="M6320 2480 c8 -5 26 -10 39 -10 32 0 24 6 -19 14 -25 4 -31 3 -20 -4z"/>
<path d="M1140 2460 l-1145 -5 1147 -3 c756 -1 1149 1 1153 8 3 6 3 9 -2 8 -4 -2 -523 -5 -1153 -8z"/>
<path d="M6407 2458 c2 -5 500 -7 1106 -6 606 2 987 4 847 5 -653 7 -1958 7 -1953 1z"/>
</g>
<g id="layer104" fill="#61b390" stroke="none">
<path d="M4252 5440 c-18 -4 -41 -14 -50 -22 -9 -8 -25 -18 -34 -21 -10 -4 -18 -13 -18 -20 0 -8 46 -60 102 -117 l101 -102 -65 -33 c-36 -17 -81 -44 -100 -58 l-35 -27 -68 72 c-236 250 -305 320 -313 316 -6 -1 75 -92 179 -201 l189 -198 -25 -37 c-14 -20 -32 -58 -41 -85 l-16 -49 -30 29 c-17 15 -65 63 -108 106 -68 68 -108 96 -98 68 2 -5 50 -57 107 -116 57 -58 100 -110 95 -114 -5 -4 -25 -14 -44 -21 -19 -7 -60 -30 -91 -51 l-57 -38 -98 102 c-55 57 -139 144 -187 195 -49 51 -92 90 -96 88 -4 -3 32 -47 81 -98 49 -51 133 -140 187 -198 l99 -105 -20 -29 c-12 -15 -31 -52 -43 -81 l-21 -53 -108 105 c-90 88 -109 103 -122 92 -13 -11 0 -28 92 -120 60 -60 106 -110 103 -112 -2 -2 -24 -12 -49 -23 -25 -10 -66 -34 -92 -51 l-47 -33 -103 108 c-236 246 -277 286 -284 280 -3 -4 38 -53 93 -110 54 -57 140 -146 190 -198 l91 -94 -29 -42 c-16 -24 -35 -66 -42 -95 l-14 -52 -84 87 c-46 48 -104 102 -129 119 l-45 31 32 -39 c17 -22 68 -76 112 -120 45 -44 81 -82 81 -86 0 -3 -20 -14 -45 -24 -25 -9 -68 -33 -96 -52 l-51 -35 -131 139 c-73 76 -157 165 -189 198 -31 33 -60 56 -64 53 -4 -4 79 -97 183 -205 l190 -198 -24 -35 c-30 -43 -53 -96 -53 -121 0 -11 -3 -19 -8 -19 -4 0 -48 40 -97 90 -50 49 -95 90 -102 90 -6 0 -29 -19 -50 -41 -21 -23 -48 -51 -59 -64 -12 -12 -27 -31 -33 -43 -10 -19 -20 -22 -79 -22 -51 0 -75 5 -102 22 -100 62 -245 108 -341 108 -211 0 -455 -138 -575 -326 -39 -60 -88 -164 -78 -164 4 0 1 -7 -6 -15 -7 -8 -10 -15 -7 -15 4 0 0 -17 -7 -37 -26 -77 -27 -223 -2 -334 62 -268 275 -482 544 -543 131 -30 260 -14 397 49 l70 32 890 -9 c988 -10 1158 -9 1177 10 9 9 114 12 428 14 l415 1 -540 8 c-297 4 -565 10 -596 13 -81 8 -177 46 -250 99 -35 25 -207 189 -383 365 l-318 319 60 7 c36 4 86 19 122 37 l61 31 57 -53 c139 -131 336 -314 435 -405 102 -94 107 -101 100 -129 -26 -105 30 -185 128 -185 56 0 106 30 125 75 l14 35 109 0 c59 0 190 -3 289 -7 152 -5 182 -9 182 -21 0 -26 48 -99 79 -122 37 -26 111 -40 157 -30 187 42 208 301 32 375 -101 42 -229 -16 -260 -118 l-11 -38 -256 2 c-316 1 -318 2 -336 45 -20 49 -68 76 -130 71 -27 -2 -57 -7 -66 -11 -16 -7 -147 109 -556 496 l-63 59 24 37 c27 44 46 96 46 128 0 13 4 24 9 24 5 0 145 -135 312 -300 167 -165 304 -300 306 -300 2 0 38 35 81 78 44 42 93 90 109 105 l31 29 17 -54 c29 -89 27 -87 87 -76 29 5 55 11 57 13 1 2 -11 46 -28 97 -17 51 -31 99 -31 106 0 30 53 82 94 93 75 21 729 179 739 179 7 0 8 -187 4 -534 -8 -607 -17 -547 83 -544 30 1 47 3 38 6 -10 2 -18 10 -18 18 0 11 21 14 109 14 63 0 112 4 116 10 4 6 -35 10 -109 10 l-116 0 0 90 0 90 115 0 c74 0 115 4 115 11 0 7 -39 9 -115 7 -104 -3 -115 -1 -115 15 0 15 13 17 133 17 l133 0 49 -50 c51 -51 53 -71 3 -23 -19 18 -28 22 -28 12 0 -8 28 -43 63 -77 l63 -62 269 0 c175 0 266 -3 259 -10 -5 -5 -36 -19 -69 -31 -49 -18 -89 -23 -212 -27 -84 -2 -153 -8 -153 -13 0 -16 166 -90 235 -104 185 -39 372 9 540 138 254 195 347 556 219 859 -81 193 -259 350 -469 414 -89 27 -238 25 -335 -5 -77 -24 -205 -89 -195 -99 3 -3 54 -6 113 -6 59 0 87 -1 63 -3 -25 -3 -60 -15 -80 -29 -34 -23 -42 -24 -210 -24 l-175 0 -33 32 c-43 42 -53 30 -13 -16 l32 -36 198 0 198 0 17 26 16 26 129 -4 c92 -2 133 -7 142 -17 11 -11 -4 -13 -95 -9 -92 4 -107 3 -105 -10 3 -13 25 -15 139 -13 l135 2 60 -44 c120 -88 199 -214 230 -367 14 -72 15 -98 6 -170 -7 -47 -19 -108 -29 -135 -33 -99 -123 -224 -199 -276 l-43 -30 -287 0 c-280 0 -287 1 -310 22 -18 17 -21 25 -12 39 10 15 1 27 -53 78 l-64 61 -137 1 -138 0 0 310 c0 171 3 310 6 310 3 0 32 -22 64 -49 l59 -48 -31 -29 c-123 -116 -74 -330 87 -385 27 -9 73 -45 140 -109 l100 -96 285 -2 c170 -1 291 2 300 8 10 6 -88 10 -285 10 l-300 0 -85 85 c-55 56 -79 86 -69 88 101 31 99 31 133 -2 30 -29 37 -31 102 -31 68 0 71 1 109 40 l39 40 178 0 c112 0 178 4 178 10 0 6 -67 10 -182 10 l-182 0 -41 -40 c-63 -61 -131 -67 -191 -15 l-29 25 34 30 34 30 278 0 c179 0 279 4 279 10 0 6 -98 10 -274 10 l-274 0 17 45 c15 43 18 45 55 45 24 0 47 7 59 18 19 16 21 15 63 -31 38 -43 46 -47 64 -37 13 7 66 11 133 10 180 -3 186 3 10 9 l-163 6 -37 37 -37 37 24 26 c13 14 32 25 42 25 10 0 18 5 18 10 0 6 59 10 158 10 86 0 151 4 144 9 -7 4 -85 8 -173 9 l-160 1 -34 -37 -33 -37 -24 23 c-17 15 -37 22 -64 22 -36 0 -43 4 -72 45 -18 25 -32 48 -32 51 0 3 10 14 23 24 21 18 23 18 46 -3 13 -12 27 -32 32 -44 12 -32 21 -29 58 17 50 62 79 70 267 70 103 0 164 4 164 10 0 6 -63 10 -169 10 -103 0 -172 4 -176 10 -10 16 -45 11 -51 -7 -13 -41 -30 -66 -52 -76 -19 -9 -27 -6 -51 17 -35 34 -32 46 20 80 39 26 39 26 259 26 140 0 220 4 220 10 0 6 -79 10 -217 10 -120 0 -228 3 -240 6 -17 5 -25 1 -29 -12 -4 -11 -18 -31 -32 -47 l-26 -27 -33 32 -33 32 32 33 33 34 273 -1 c151 -1 276 1 279 4 4 3 -124 6 -283 6 l-290 0 -29 -30 c-20 -21 -32 -27 -41 -20 -8 8 -34 -8 -90 -53 -44 -35 -92 -69 -109 -74 -27 -9 -35 -5 -102 50 -51 42 -73 67 -73 82 0 28 17 35 85 35 49 0 55 -3 104 -50 28 -27 55 -50 59 -50 4 0 32 25 62 55 30 30 60 55 67 55 16 0 17 26 1 36 -7 4 -16 0 -22 -10 -6 -10 -32 -41 -59 -69 l-47 -51 -48 47 -47 46 -77 2 -78 2 0 35 c0 32 1 34 13 18 24 -33 79 -1 64 38 -8 19 -63 22 -70 4 -3 -7 -6 8 -6 34 -1 38 -7 53 -33 81 -18 18 -41 36 -50 40 -16 6 -18 0 -18 -47 l0 -53 -227 -57 c-126 -31 -234 -57 -242 -56 -13 0 -56 48 -56 62 0 14 319 328 332 328 7 0 13 4 13 8 0 5 23 31 51 58 28 27 56 55 62 62 7 7 19 21 28 31 20 22 39 97 39 152 0 81 -83 179 -150 179 -11 0 -20 7 -20 15 0 8 -4 15 -10 15 -5 0 -10 -4 -10 -10 0 -14 -58 -12 -62 2 -4 11 15 36 83 107 16 18 30 49 39 89 16 78 6 118 -47 183 -33 40 -46 49 -95 59 -85 19 -137 7 -195 -43 -70 -61 -111 -98 -140 -129 -33 -35 -51 -37 -21 -3 26 30 29 41 29 128 0 72 -8 93 -56 141 -35 35 -88 56 -141 56 -50 0 -85 -13 -135 -52 -20 -15 -46 -28 -57 -28 -18 0 -20 7 -20 70 -1 56 -5 76 -24 101 -23 33 -82 97 -83 91 0 -2 -11 -1 -25 2 -56 11 -97 13 -128 6z m138 -363 c7 -25 15 -35 23 -30 9 5 9 3 1 -8 -7 -8 -15 -30 -19 -49 -27 -126 -147 -202 -265 -167 -53 15 -59 31 -34 95 31 81 120 161 229 203 45 17 49 14 65 -44z m-315 -340 c18 -101 -48 -203 -151 -233 -83 -24 -164 -5 -164 39 0 40 46 121 94 166 26 23 80 58 119 76 l72 33 12 -21 c6 -12 15 -39 18 -60z m605 -30 c0 -2 -19 -21 -42 -42 l-43 -40 40 43 c36 39 45 47 45 39z m-935 -302 c13 -82 -39 -182 -114 -219 -43 -22 -97 -27 -145 -15 -43 11 -46 13 -46 46 0 44 38 118 86 166 21 21 70 53 108 73 l71 35 17 -21 c9 -11 20 -41 23 -65z m-331 -275 c21 -53 20 -105 -3 -155 -46 -102 -150 -152 -251 -122 -43 13 -45 15 -42 47 9 88 95 188 205 241 34 16 65 29 68 29 4 0 14 -18 23 -40z m243 -256 c35 -15 35 -16 31 -63 -5 -48 -50 -161 -65 -161 -4 0 -55 44 -113 98 l-105 99 35 18 c71 37 142 40 217 9z m-137 -202 c63 -60 64 -63 45 -78 -30 -23 -113 -44 -171 -44 l-52 0 -11 44 c-6 25 -11 58 -11 74 0 33 24 108 42 129 12 15 9 17 158 -125z m1429 74 c9 -11 3 -15 -30 -24 l-41 -10 23 24 c26 28 32 29 48 10z m1001 -141 c-24 -25 -53 -45 -63 -45 -13 0 -3 13 34 45 29 25 57 45 63 45 6 0 -10 -20 -34 -45z m96 -63 l-24 -25 -46 19 -45 19 36 37 37 38 33 -32 33 -32 -24 -24z m-69 -68 c55 -41 68 -70 68 -147 0 -61 -4 -77 -24 -105 -30 -39 -95 -72 -141 -72 -78 0 -160 69 -176 148 -13 66 28 150 92 186 41 23 144 17 181 -10z m218 -104 c25 -27 5 -50 -45 -50 -36 0 -38 2 -42 35 -4 34 -3 35 32 35 24 0 43 -7 55 -20z m-834 -300 c53 -35 79 -83 79 -146 0 -182 -225 -247 -327 -95 -13 19 -23 42 -23 52 0 28 36 24 44 -3 15 -61 93 -103 161 -88 90 20 134 127 85 207 -54 89 -197 81 -239 -15 -9 -19 -22 -32 -33 -32 -41 0 0 83 61 121 63 41 131 40 192 -1z"/>
<path d="M5845 3398 c-30 -17 -44 -40 -45 -69 -1 -69 86 -104 135 -55 33 34 32 71 -4 107 -31 31 -54 35 -86 17z"/>
<path d="M3725 5170 c-5 -7 3 -21 20 -36 33 -28 45 -31 23 -6 -8 9 -20 25 -25 36 -8 14 -12 15 -18 6z"/>
<path d="M3410 4848 c0 -10 -7 -18 -16 -18 -14 0 -14 -2 0 -15 8 -8 19 -15 24 -15 5 0 23 -13 40 -29 16 -16 33 -27 36 -24 5 5 -3 17 -34 50 -8 9 -23 28 -32 42 -14 20 -18 22 -18 9z"/>
<path d="M5670 3901 c0 -8 26 -40 58 -73 l59 -58 422 0 c279 0 420 3 416 10 -4 6 -154 10 -418 10 l-411 0 -63 62 c-35 34 -63 56 -63 49z"/>
<path d="M5807 3753 c-11 -11 -8 -33 5 -33 6 0 22 -9 34 -21 l23 -21 35 27 c38 29 43 39 24 51 -6 4 -17 -1 -24 -12 -29 -42 -34 -45 -48 -32 -6 7 -15 21 -19 31 -7 18 -19 22 -30 10z"/>
<path d="M6499 3029 l-43 -40 -200 2 c-160 2 -201 -1 -201 -11 0 -10 42 -13 205 -11 l205 2 40 40 c34 33 47 39 83 39 23 0 42 5 42 10 0 6 -20 10 -44 10 -37 0 -50 -6 -87 -41z"/>
<path d="M6160 2865 c-14 -8 -35 -14 -47 -15 -16 0 -23 -6 -23 -20 0 -26 11 -25 56 5 37 25 38 25 260 25 143 0 224 4 224 10 0 6 -81 10 -222 10 -175 -1 -228 -4 -248 -15z"/>
<path d="M5792 2861 c-8 -4 -12 -19 -10 -32 4 -33 53 -40 63 -9 11 36 -22 61 -53 41z"/>
<path d="M5678 2693 c12 -2 30 -2 40 0 9 3 -1 5 -23 4 -22 0 -30 -2 -17 -4z"/>
<path d="M5808 2693 c23 -2 61 -2 85 0 23 2 4 4 -43 4 -47 0 -66 -2 -42 -4z"/>
</g>
<g id="layer105" fill="#96eec5" stroke="none">
<path d="M4225 5424 c-16 -8 -40 -25 -52 -36 l-23 -21 113 -116 c88 -91 116 -126 126 -160 l13 -44 38 38 c39 38 70 106 70 153 0 75 -56 157 -127 187 -46 19 -120 19 -158 -1z"/>
<path d="M3800 5393 c11 -18 26 -36 33 -40 19 -12 307 -320 307 -327 0 -4 -11 -22 -24 -39 -20 -27 -35 -63 -53 -126 -2 -10 -45 26 -118 99 -63 63 -115 108 -115 100 0 -9 45 -60 101 -115 107 -106 149 -172 149 -235 0 -150 -153 -261 -285 -206 -28 12 -35 20 -35 43 1 80 87 181 203 238 40 19 65 35 57 35 -24 0 -112 -44 -147 -74 -18 -15 -37 -26 -41 -24 -5 1 -89 87 -187 190 -98 103 -181 186 -183 183 -5 -4 230 -255 317 -340 23 -21 41 -43 41 -47 0 -5 -13 -27 -30 -49 -16 -23 -32 -57 -36 -75 -3 -19 -11 -37 -16 -40 -6 -4 -56 39 -112 94 -78 78 -104 99 -116 92 -12 -8 5 -30 88 -112 56 -57 102 -106 102 -110 0 -3 -16 -12 -35 -18 -19 -6 -63 -30 -96 -52 l-62 -41 -56 59 c-31 32 -113 119 -183 193 -70 74 -130 133 -132 130 -2 -2 58 -69 135 -149 77 -80 160 -168 184 -196 l45 -52 -34 -50 c-19 -28 -37 -69 -41 -92 -4 -22 -10 -40 -14 -40 -3 0 -51 45 -105 99 -55 55 -104 97 -109 94 -5 -3 36 -51 92 -107 l102 -102 -52 -18 c-28 -10 -71 -34 -95 -52 -24 -19 -48 -34 -52 -34 -5 0 -44 37 -87 83 -170 177 -288 297 -291 294 -4 -3 13 -22 213 -233 l153 -162 -35 -52 c-19 -29 -38 -70 -41 -91 -4 -21 -10 -39 -13 -39 -4 0 -49 43 -101 96 l-95 96 -80 -87 -80 -87 -60 -2 c-53 -2 -68 2 -125 35 -77 44 -159 73 -253 89 -174 31 -409 -59 -556 -213 -63 -65 -81 -91 -122 -170 -54 -105 -71 -172 -76 -308 -5 -108 -2 -136 16 -204 57 -207 191 -372 379 -468 194 -99 384 -98 582 3 l44 22 995 -6 c819 -6 1006 -4 1051 7 54 13 53 13 -120 20 -228 8 -292 26 -410 114 -30 22 -200 185 -377 361 l-322 319 52 7 c67 9 113 24 158 52 l35 22 41 -37 c22 -20 96 -88 164 -151 67 -63 157 -146 198 -184 191 -175 211 -197 201 -216 -15 -28 -12 -88 5 -124 19 -39 70 -66 125 -66 45 0 106 45 116 86 l6 24 248 0 c136 0 267 -3 291 -6 42 -6 46 -10 71 -63 35 -71 79 -103 154 -109 64 -5 106 9 151 51 130 122 42 333 -139 332 -77 -1 -133 -38 -168 -112 l-25 -53 -287 0 -286 0 -19 37 c-10 21 -34 48 -53 61 -35 24 -67 25 -140 8 -21 -5 -35 3 -80 46 -31 29 -107 100 -170 158 -62 58 -152 141 -199 186 -47 44 -105 98 -129 120 l-43 39 30 60 c17 33 33 79 37 103 3 23 9 42 13 42 3 0 141 -135 306 -300 165 -165 304 -300 310 -300 6 0 55 45 110 100 55 55 104 99 109 97 5 -2 18 -30 30 -62 l22 -60 53 2 c30 2 55 4 57 6 2 2 -13 52 -32 111 l-37 108 39 38 c36 34 52 41 184 73 327 81 602 147 616 147 12 0 14 -79 16 -532 l3 -533 37 -2 c27 -2 41 3 51 17 12 17 28 20 123 23 l109 3 -112 2 -113 2 0 90 0 89 113 4 112 3 -112 2 -113 2 0 25 0 25 133 0 133 0 47 -48 c45 -45 59 -72 37 -72 -5 0 -14 8 -19 19 -6 10 -18 22 -28 25 -10 4 13 -25 52 -63 l69 -71 271 -2 270 -3 -40 -18 c-80 -36 -157 -50 -288 -51 l-128 -1 27 -21 c34 -28 139 -69 229 -90 128 -30 295 2 435 83 83 49 214 180 263 263 144 248 125 570 -46 795 -184 242 -477 345 -729 258 -47 -16 -108 -43 -135 -59 l-48 -29 125 -3 c136 -3 196 -22 70 -22 -56 0 -78 -4 -93 -17 -16 -16 -45 -18 -206 -21 l-186 -3 -27 26 c-38 35 -48 32 -14 -4 l29 -30 196 -3 c195 -3 196 -3 215 20 18 23 23 23 152 20 93 -2 137 -7 146 -16 11 -11 -5 -13 -94 -11 -106 3 -136 -3 -108 -21 9 -5 19 -5 27 2 8 6 56 9 125 6 130 -4 138 -7 236 -102 107 -103 169 -238 179 -386 12 -196 -65 -372 -218 -500 l-60 -50 -283 0 -284 0 -31 32 c-27 28 -29 32 -14 43 15 11 12 16 -22 46 -21 19 -50 46 -64 62 -24 27 -24 27 -163 27 l-138 0 0 316 0 316 38 -31 c20 -16 51 -41 67 -55 l30 -24 -27 -21 c-14 -12 -38 -44 -52 -73 -48 -96 -27 -202 55 -272 24 -20 60 -41 80 -47 25 -8 66 -41 130 -105 l94 -94 300 2 300 3 -295 2 -296 3 -89 90 c-85 86 -88 90 -61 90 16 0 45 5 63 12 31 11 35 10 66 -20 30 -30 38 -32 100 -32 65 0 68 1 106 40 l39 40 175 0 c107 0 178 4 182 10 4 7 -55 10 -171 10 l-177 0 -48 -45 c-46 -43 -51 -45 -107 -45 -52 0 -61 3 -87 30 l-29 30 34 35 34 35 280 2 281 3 -279 2 c-259 3 -278 4 -271 21 4 9 11 31 16 47 8 27 13 30 48 30 25 0 47 8 60 19 21 19 22 19 56 -14 19 -19 35 -39 35 -44 0 -7 46 -10 137 -8 200 4 221 9 46 10 l-152 2 -34 30 c-19 17 -53 48 -75 71 -37 36 -46 40 -82 38 -33 -3 -44 1 -52 16 -6 11 -22 32 -36 47 l-26 28 24 25 c13 14 29 25 35 25 14 0 50 -38 58 -62 7 -19 37 -25 37 -8 0 13 62 69 97 87 20 10 63 14 158 13 204 -2 217 3 25 10 -96 4 -184 9 -195 11 -13 3 -20 -2 -23 -16 -6 -29 -53 -75 -77 -75 -20 0 -65 40 -65 58 0 18 57 61 93 70 22 6 120 9 232 7 108 -1 198 1 201 6 3 5 -98 9 -236 9 -218 0 -241 -2 -247 -17 -4 -9 -18 -27 -32 -39 -22 -19 -28 -20 -44 -9 -10 7 -26 23 -34 35 -14 20 -13 24 13 51 l27 29 281 3 281 2 -281 3 -280 2 -34 -30 c-21 -19 -40 -28 -51 -25 -11 4 -40 -13 -83 -50 -36 -31 -82 -63 -102 -71 l-36 -15 -72 59 c-57 47 -72 66 -74 91 l-3 31 73 0 72 0 54 -52 53 -53 50 53 c28 28 59 57 70 62 25 14 24 30 -1 30 -11 0 -20 -6 -20 -13 0 -7 -22 -35 -50 -62 l-50 -49 -48 47 -48 47 -77 0 -77 0 0 36 c0 33 1 34 16 19 31 -31 82 6 55 39 -18 21 -48 20 -60 -1 -8 -14 -10 -7 -11 31 0 44 -4 52 -42 87 -24 22 -46 39 -50 39 -5 0 -8 -22 -8 -50 0 -27 -1 -50 -2 -50 -2 0 -109 -27 -238 -60 l-235 -59 -35 35 -35 35 253 250 c156 153 259 263 268 284 21 52 18 143 -7 185 -38 64 -101 100 -176 100 -61 0 -104 -21 -171 -82 -82 -76 -26 -14 102 110 116 114 145 161 146 230 0 115 -87 201 -206 202 -70 0 -108 -26 -320 -226 -98 -93 -186 -176 -195 -184 -9 -8 -41 -39 -72 -69 -114 -107 -53 -38 121 137 188 190 202 211 202 298 0 49 -33 108 -83 147 -47 38 -131 48 -191 23 -45 -19 -244 -194 -245 -216 -5 -74 -49 -139 -120 -175 -57 -28 -102 -33 -160 -15 -42 13 -43 15 -38 50 12 93 86 179 200 235 40 19 65 35 57 35 -24 0 -112 -45 -149 -76 l-34 -28 -189 194 c-105 107 -180 180 -168 163z m-64 -938 c22 -54 18 -116 -14 -176 -49 -94 -147 -137 -247 -109 -45 13 -45 13 -39 49 11 63 41 119 89 165 43 43 153 106 182 106 8 0 21 -16 29 -35z m-321 -321 c19 -46 19 -100 0 -155 -20 -57 -49 -86 -110 -115 -56 -27 -98 -30 -157 -12 -39 12 -40 12 -34 51 17 103 116 211 233 253 52 18 51 18 68 -22z m240 -260 c35 -17 40 -23 37 -49 -5 -51 -31 -132 -51 -156 l-18 -23 -26 20 c-13 11 -62 55 -108 97 -73 68 -82 79 -69 92 46 45 163 55 235 19z m-184 -150 c52 -47 101 -92 109 -100 12 -12 12 -16 -5 -29 -25 -19 -103 -42 -173 -50 l-52 -7 -16 39 c-21 49 -14 155 12 200 11 18 22 33 25 33 3 0 48 -39 100 -86z m1479 31 c16 -20 5 -31 -37 -40 -39 -8 -41 0 -11 32 25 27 31 28 48 8z m1040 -111 c0 -4 -18 -24 -40 -46 -27 -27 -46 -38 -62 -36 -20 3 -16 8 31 46 51 40 71 50 71 36z m55 -44 l29 -30 -26 -26 -26 -26 -46 17 c-25 10 -46 20 -46 23 0 11 64 72 75 72 6 0 24 -14 40 -30z m-91 -111 c89 -41 130 -152 88 -235 -37 -73 -88 -104 -168 -104 -130 0 -214 142 -154 260 45 88 144 122 234 79z m249 -116 c25 -28 0 -53 -52 -53 -34 0 -41 3 -41 19 0 11 -3 26 -6 35 -9 24 77 22 99 -1z m-831 -305 c98 -75 94 -228 -9 -298 -54 -37 -145 -35 -201 4 -24 16 -50 46 -62 70 -25 53 -25 56 3 56 17 0 28 -10 40 -35 60 -125 257 -81 257 57 0 66 -70 138 -133 138 -48 0 -96 -29 -123 -75 -19 -33 -29 -42 -45 -38 -36 10 0 77 66 125 36 27 46 29 106 26 53 -3 73 -9 101 -30z"/>
<path d="M5828 3383 c-37 -43 -32 -90 12 -116 38 -23 54 -21 86 6 34 30 36 83 3 109 -27 23 -81 23 -101 1z"/>
<path d="M5680 3893 c0 -4 26 -33 57 -65 l57 -58 421 2 420 3 -417 5 -417 5 -60 58 c-34 32 -61 54 -61 50z"/>
<path d="M5800 3743 c0 -5 16 -21 35 -36 l35 -28 30 23 c30 24 39 48 17 48 -7 0 -17 -10 -22 -22 -6 -13 -17 -23 -25 -23 -8 0 -19 10 -25 23 -9 20 -45 32 -45 15z"/>
<path d="M6269 3401 c-16 -18 -28 -35 -26 -37 2 -2 12 5 22 16 10 11 26 20 36 20 10 0 21 5 24 10 4 6 70 11 158 12 166 2 143 6 -55 10 l-128 3 -31 -34z"/>
<path d="M6500 3025 l-35 -36 -200 1 c-159 1 -201 -1 -203 -12 -2 -11 35 -12 200 -10 l203 3 40 39 c32 31 49 40 85 43 l45 4 -51 1 c-45 2 -53 -1 -84 -33z"/>
<path d="M6149 2859 c-54 -16 -70 -31 -48 -45 7 -4 17 0 24 9 23 31 66 37 281 37 118 0 214 3 214 8 0 4 -94 7 -209 7 -162 0 -220 -4 -262 -16z"/>
<path d="M5792 2858 c-30 -30 1 -73 36 -51 23 14 25 29 7 47 -20 19 -27 20 -43 4z"/>
</g>
<g id="layer106" fill="#c7cdbc" stroke="none">
<path d="M4638 5222 c-20 -10 -81 -60 -135 -110 -88 -83 -99 -97 -110 -142 -16 -66 -46 -103 -108 -134 -67 -33 -118 -39 -166 -19 -31 12 -39 21 -40 42 -1 17 -3 20 -6 9 -2 -10 -8 -18 -11 -18 -4 0 -50 43 -102 96 -88 89 -130 124 -130 109 0 -4 46 -53 103 -109 56 -57 112 -123 125 -148 51 -103 10 -232 -89 -284 -48 -24 -136 -30 -181 -11 -35 15 -37 19 -33 49 3 23 3 26 -3 10 -4 -13 -11 -23 -15 -24 -5 0 -55 45 -111 101 -92 91 -116 107 -116 79 0 -5 46 -54 101 -109 69 -68 98 -104 90 -109 -9 -5 -6 -9 8 -13 31 -8 44 -53 38 -129 -4 -49 -11 -74 -26 -90 -12 -12 -21 -27 -21 -32 0 -6 -21 -24 -47 -41 -75 -47 -223 -47 -223 1 0 6 -6 11 -13 10 -8 0 -55 38 -106 86 -128 121 -135 121 -17 -1 54 -56 95 -105 92 -108 -3 -3 3 -13 14 -20 11 -8 18 -18 15 -23 -3 -5 -1 -11 5 -15 5 -3 10 -35 10 -70 0 -35 -5 -67 -10 -70 -6 -4 -8 -10 -5 -14 9 -16 -51 -81 -98 -106 -53 -28 -136 -34 -182 -13 -25 11 -26 16 -21 57 l5 46 -11 -37 c-5 -21 -14 -38 -19 -38 -5 0 -35 27 -67 60 -33 33 -64 60 -71 60 -10 0 -15 13 -12 33 0 4 -6 7 -14 7 -8 0 -15 5 -15 10 0 42 -123 -86 -125 -129 0 -20 -83 -43 -133 -36 -24 2 -56 14 -71 25 -44 31 -160 82 -221 96 -65 16 -197 18 -260 4 -69 -16 -149 -50 -220 -94 -77 -48 -93 -60 -133 -104 -141 -150 -209 -323 -206 -519 2 -124 23 -207 81 -323 61 -120 188 -247 310 -309 48 -25 93 -46 100 -47 7 -1 49 -10 93 -19 54 -11 99 -15 140 -10 33 3 62 5 65 5 7 -2 86 27 152 57 84 38 68 49 -75 52 -67 1 -123 6 -125 12 -2 5 -22 9 -45 9 -41 1 -83 21 -70 33 3 4 -1 7 -10 7 -10 0 -17 5 -17 10 0 6 -13 10 -28 10 -16 0 -34 8 -42 20 -8 11 -20 20 -27 20 -7 0 -13 4 -13 8 0 14 -36 52 -49 52 -6 0 -11 9 -11 19 0 12 -7 18 -17 17 -11 0 -21 10 -27 29 -6 17 -17 36 -23 43 -7 7 -13 22 -13 33 0 10 -6 19 -13 19 -10 0 -38 100 -40 148 0 6 -4 12 -9 12 -4 0 -8 15 -8 33 0 23 -3 28 -9 18 -6 -10 -9 7 -10 49 0 37 3 59 8 51 6 -10 10 -8 16 6 14 34 28 98 29 140 0 22 4 39 8 37 4 -3 12 6 19 18 7 12 18 29 26 36 7 7 13 22 13 32 0 10 9 25 20 33 11 8 17 17 13 20 -3 4 0 7 8 7 8 0 21 9 29 20 8 11 19 20 25 20 6 0 17 9 25 20 8 11 20 20 27 20 7 0 13 5 13 10 0 6 11 10 25 10 14 0 25 5 25 10 0 6 7 10 16 10 8 0 12 5 9 10 -4 6 12 10 39 10 44 0 46 -1 46 -30 0 -22 -5 -30 -18 -30 -9 0 -23 -9 -30 -20 -11 -18 -10 -20 16 -20 40 0 50 15 45 68 l-5 47 41 13 c49 15 111 16 111 2 0 -5 -22 -10 -50 -10 -45 0 -50 -2 -50 -22 0 -24 43 -81 57 -76 4 2 9 -12 11 -29 2 -21 9 -33 18 -33 8 0 14 -4 14 -10 0 -5 12 -10 28 -10 20 0 30 -7 40 -30 8 -18 28 -36 53 -46 22 -10 34 -21 28 -25 -6 -3 -9 -17 -7 -30 2 -19 9 -24 30 -24 15 1 26 -4 25 -9 -1 -6 8 -15 21 -21 12 -5 22 -15 22 -22 0 -7 7 -13 15 -13 8 0 15 -6 15 -14 0 -8 9 -21 20 -29 11 -8 17 -17 13 -21 -4 -4 -1 -12 7 -17 13 -9 12 -10 -2 -5 -10 3 -20 1 -23 -4 -4 -6 -1 -10 4 -10 6 0 11 -7 11 -15 0 -8 5 -15 10 -15 6 0 10 -7 10 -15 0 -10 10 -15 30 -15 25 0 30 4 30 25 0 27 13 31 55 15 23 -9 25 -13 14 -26 -10 -13 -9 -16 9 -21 17 -4 21 -10 16 -30 -7 -25 22 -63 48 -63 17 0 38 -46 38 -82 0 -26 3 -28 40 -28 29 0 40 -4 40 -15 0 -8 7 -15 16 -15 18 0 34 -15 53 -52 8 -16 23 -28 33 -28 10 0 18 -6 18 -14 0 -9 7 -12 20 -9 17 5 20 0 20 -26 0 -30 2 -31 40 -31 22 0 40 -4 40 -10 0 -5 18 -10 40 -10 39 0 40 -1 40 -36 0 -19 4 -33 8 -30 5 3 9 -12 10 -33 3 -44 -6 -51 -64 -46 -22 1 -57 -1 -79 -5 -23 -4 65 -8 210 -9 137 -1 251 -5 255 -10 3 -5 199 -11 435 -14 339 -4 438 -3 470 8 37 12 29 13 -103 14 -146 1 -265 19 -309 47 -12 8 -29 14 -36 14 -8 0 -27 12 -42 28 -16 15 -25 20 -21 12 4 -8 0 -6 -9 5 -9 11 -19 20 -23 21 -4 0 -69 62 -146 137 -76 75 -143 137 -149 137 -6 0 -8 3 -5 6 7 7 -299 314 -313 314 -6 0 -7 5 -4 10 3 6 1 10 -5 10 -14 0 -48 41 -46 55 0 5 8 10 16 11 88 10 119 18 165 43 l54 30 52 -47 c28 -26 82 -76 119 -112 37 -36 83 -79 101 -96 30 -26 254 -231 317 -289 20 -19 21 -25 11 -53 -14 -42 -3 -118 19 -132 9 -5 13 -10 7 -10 -17 -1 76 -40 95 -40 50 0 130 59 130 97 0 12 46 13 293 10 160 -3 306 -5 324 -6 23 0 33 -6 38 -21 9 -27 51 -69 82 -81 126 -48 238 115 144 211 -37 38 -85 52 -132 40 -38 -10 -82 -53 -94 -90 -7 -21 -39 -27 -50 -10 -5 7 -11 8 -19 1 -7 -6 -118 -7 -299 -4 -266 6 -287 7 -287 24 0 30 -49 78 -90 89 -40 11 -85 5 -108 -13 -9 -7 -23 -1 -50 24 -99 91 -158 147 -187 174 -17 17 -56 52 -86 80 -184 167 -308 289 -300 295 15 9 59 110 66 153 4 20 10 37 14 37 4 0 137 -129 297 -287 159 -159 297 -294 306 -301 15 -12 30 -1 124 92 60 58 110 104 112 101 2 -2 14 -32 27 -67 l23 -63 48 3 c26 1 50 4 52 7 3 3 0 22 -7 43 -7 20 -21 68 -32 106 l-20 70 38 38 c21 21 47 40 58 42 32 7 512 125 616 151 53 14 105 25 117 25 l22 0 0 -530 c0 -417 3 -530 13 -531 6 0 24 -3 39 -5 15 -3 30 1 35 8 4 7 8 58 8 113 l0 100 115 5 115 6 -115 4 c-99 4 -115 7 -118 23 -2 10 5 21 20 26 22 10 23 10 1 10 l-21 1 0 315 c1 265 3 315 15 315 12 0 11 3 -2 16 -9 9 -14 23 -11 31 3 8 6 19 6 23 0 5 28 11 63 13 l62 3 -67 2 -68 2 0 29 c0 35 13 46 30 26 16 -19 25 -19 44 1 12 12 13 20 6 35 -13 23 -48 25 -57 3 -9 -24 -23 4 -23 48 0 29 -7 44 -32 67 -44 41 -58 40 -52 -3 5 -46 -12 -62 -83 -76 -32 -7 -69 -16 -83 -21 -22 -7 -218 -57 -291 -73 -20 -4 -33 2 -59 29 l-34 35 104 107 c58 59 115 115 127 125 78 66 277 275 289 303 8 19 14 60 14 91 0 111 -84 194 -195 194 -60 0 -109 -23 -174 -83 -81 -75 -24 -12 111 122 91 91 119 125 127 156 39 145 -50 265 -197 265 -64 0 -112 -31 -249 -162 -259 -245 -302 -285 -346 -326 -98 -91 -41 -25 111 127 187 189 196 198 210 241 29 82 3 164 -71 224 -49 39 -141 48 -199 18z m-1013 -1332 c3 -5 14 -10 23 -10 9 0 25 -7 35 -15 18 -13 18 -17 2 -89 -16 -70 -44 -126 -65 -126 -9 0 -73 56 -163 141 l-59 56 23 17 c13 9 31 16 41 16 9 0 20 5 23 10 3 6 35 10 70 10 35 0 67 -4 70 -10z m-1115 -40 c0 -5 -18 -10 -40 -10 -22 0 -40 5 -40 10 0 6 18 10 40 10 22 0 40 -4 40 -10z m979 -139 c55 -52 101 -98 101 -101 0 -24 -146 -70 -219 -70 -65 1 -83 179 -24 238 7 7 13 18 13 23 0 22 32 0 129 -90z m1459 47 c21 -21 13 -35 -25 -41 -47 -8 -52 -3 -23 28 27 28 31 30 48 13z m-1898 -644 c0 -8 -4 -12 -10 -9 -5 3 -10 13 -10 21 0 8 5 12 10 9 6 -3 10 -13 10 -21z m778 -421 c-10 -2 -28 -2 -40 0 -13 2 -5 4 17 4 22 1 32 -1 23 -4z"/>
<path d="M6335 4001 c-33 -10 -94 -35 -135 -57 l-75 -39 138 -3 c80 -1 137 -7 137 -12 0 -6 -35 -10 -79 -10 -44 0 -82 -3 -84 -7 -3 -5 60 -8 138 -8 106 0 147 -3 157 -13 11 -11 -5 -13 -94 -11 -60 2 -108 -1 -108 -5 0 -4 62 -8 137 -9 l138 -2 57 -43 c111 -85 184 -194 219 -330 55 -218 -7 -432 -172 -588 -83 -78 -62 -74 -384 -76 l-290 -3 275 -5 c223 -4 271 -7 254 -17 -65 -37 -200 -63 -329 -63 -86 0 -88 -1 -69 -18 44 -41 248 -102 341 -102 45 0 191 39 248 65 161 76 306 226 368 383 42 104 56 184 52 292 -4 121 -21 194 -71 299 -37 79 -122 191 -175 232 -17 13 -41 32 -53 43 -31 28 -175 94 -240 111 -77 20 -225 18 -301 -4z"/>
<path d="M6030 3675 c-17 -19 -27 -22 -36 -14 -10 8 -26 0 -64 -32 -27 -23 -50 -44 -50 -47 0 -5 24 14 71 56 45 40 47 6 3 -39 -30 -31 -46 -40 -69 -38 -16 1 -47 -5 -69 -14 -49 -22 -49 -22 -88 10 l-33 27 30 -32 29 -32 -35 -35 c-35 -33 -69 -113 -69 -159 0 -86 78 -190 161 -215 24 -7 50 -18 58 -25 12 -8 13 -8 7 2 -5 8 0 12 15 12 12 0 39 5 61 12 31 9 44 9 59 0 18 -11 18 -11 7 7 -10 17 -7 23 22 48 l34 28 265 5 266 5 -262 3 c-145 1 -263 3 -263 5 0 1 7 25 15 52 24 76 8 150 -44 207 -19 22 -22 30 -12 42 10 12 9 14 -9 9 -20 -5 -100 23 -100 36 0 3 17 22 37 43 l37 38 30 -28 c29 -25 29 -25 8 -1 -27 31 -27 37 0 66 12 13 19 23 16 23 -2 0 -15 -11 -28 -25z m-47 -196 c91 -60 104 -215 23 -282 -11 -10 -40 -27 -63 -38 -37 -19 -48 -19 -98 -9 -92 19 -145 86 -145 182 1 73 35 129 100 161 48 24 134 17 183 -14z"/>
<path d="M5958 2919 c12 -14 22 -33 22 -42 0 -9 6 -17 14 -17 29 0 23 16 -17 50 -27 21 -34 25 -19 9z"/>
</g>
<g id="layer107" fill="#c2f5de" stroke="none">
<path d="M4230 5423 c-19 -8 -45 -24 -58 -36 l-23 -21 115 -116 c79 -80 117 -126 126 -152 6 -21 15 -38 19 -38 4 0 22 16 40 35 34 38 61 101 61 143 0 138 -154 240 -280 185z"/>
<path d="M3820 5378 c41 -45 50 -53 50 -45 0 2 -21 23 -47 47 l-48 45 45 -47z"/>
<path d="M4638 5222 c-20 -10 -81 -60 -135 -110 -88 -83 -99 -97 -110 -142 -7 -28 -23 -64 -35 -80 -28 -35 -110 -80 -148 -80 -15 0 -39 -9 -54 -21 -14 -11 -26 -16 -26 -10 0 6 5 11 10 11 22 0 8 17 -25 29 -28 10 -35 18 -36 39 -1 17 -3 21 -6 10 -2 -10 -8 -18 -11 -18 -4 0 -50 43 -102 96 -88 89 -130 124 -130 109 0 -4 48 -55 107 -113 116 -117 143 -161 142 -237 -1 -86 -40 -154 -110 -191 -48 -24 -136 -30 -181 -11 -35 15 -37 19 -33 49 3 23 3 26 -3 10 -4 -13 -11 -23 -15 -24 -5 0 -55 45 -111 101 -92 91 -116 107 -116 79 0 -5 46 -54 101 -109 77 -77 98 -103 88 -110 -11 -7 -9 -9 8 -9 48 0 59 -173 13 -222 -11 -12 -20 -27 -20 -32 0 -6 -21 -24 -47 -41 -75 -47 -223 -47 -223 1 0 6 -6 11 -13 10 -8 0 -55 38 -106 86 -128 121 -135 121 -18 0 54 -56 95 -107 92 -112 -3 -6 1 -10 9 -10 9 0 17 -4 17 -10 1 -5 2 -14 3 -19 0 -5 4 -13 9 -17 11 -11 9 -132 -3 -139 -6 -4 -8 -10 -5 -14 9 -16 -51 -81 -98 -106 -53 -28 -136 -34 -182 -13 -25 11 -26 16 -21 57 l5 46 -11 -37 c-5 -21 -14 -38 -19 -38 -5 0 -35 27 -67 60 -33 33 -64 60 -71 60 -10 0 -15 13 -12 33 0 4 -6 7 -14 7 -8 0 -15 5 -15 10 0 42 -123 -86 -125 -129 0 -20 -83 -43 -133 -36 -24 2 -56 14 -71 25 -44 31 -150 77 -217 94 -209 54 -445 -21 -616 -196 -80 -81 -137 -174 -174 -283 -37 -106 -44 -293 -15 -395 60 -209 192 -374 375 -470 47 -24 93 -45 102 -46 10 -2 51 -10 92 -19 86 -19 166 -15 257 13 73 24 153 65 149 77 -3 8 -44 12 -127 14 -67 1 -123 6 -125 12 -2 5 -22 9 -45 9 -41 1 -83 21 -70 33 3 4 -1 7 -10 7 -10 0 -17 5 -17 10 0 6 -13 10 -28 10 -16 0 -34 8 -42 20 -8 11 -20 20 -27 20 -7 0 -13 4 -13 8 0 14 -36 52 -49 52 -6 0 -11 9 -11 19 0 12 -7 18 -17 17 -11 0 -21 10 -27 29 -6 17 -17 36 -23 43 -7 7 -13 22 -13 33 0 10 -6 19 -13 19 -10 0 -38 100 -40 148 0 6 -4 12 -9 12 -4 0 -8 15 -8 33 0 23 -3 28 -9 18 -6 -10 -9 7 -10 49 0 37 3 59 8 51 6 -10 10 -8 16 6 14 34 28 98 29 140 0 22 4 39 8 37 4 -3 12 6 19 18 7 12 18 29 26 36 7 7 13 22 13 32 0 10 9 25 20 33 11 8 17 17 13 20 -3 4 0 7 8 7 8 0 21 9 29 20 8 11 19 20 25 20 6 0 17 9 25 20 8 11 20 20 27 20 7 0 13 5 13 10 0 6 11 10 25 10 14 0 25 5 25 10 0 6 7 10 16 10 8 0 12 5 9 10 -4 6 12 10 39 10 44 0 46 -1 46 -30 0 -22 -5 -30 -18 -30 -9 0 -23 -9 -30 -20 -11 -18 -10 -20 16 -20 40 0 50 15 45 68 l-5 47 41 13 c49 15 111 16 111 2 0 -5 -22 -10 -50 -10 -45 0 -50 -2 -50 -22 0 -24 43 -81 57 -76 4 2 9 -12 11 -29 2 -21 9 -33 18 -33 8 0 14 -4 14 -10 0 -5 12 -10 28 -10 20 0 30 -7 40 -30 8 -18 28 -36 53 -46 22 -10 34 -21 28 -25 -6 -3 -9 -17 -7 -30 2 -19 9 -24 30 -24 15 1 26 -4 25 -9 -1 -6 8 -15 21 -21 12 -5 22 -15 22 -22 0 -7 7 -13 15 -13 8 0 15 -6 15 -14 0 -8 9 -21 20 -29 11 -8 17 -17 13 -21 -4 -4 -1 -12 7 -17 13 -9 12 -10 -2 -5 -10 3 -20 1 -23 -4 -4 -6 -1 -10 4 -10 6 0 11 -7 11 -15 0 -8 5 -15 10 -15 6 0 10 -7 10 -15 0 -10 10 -15 30 -15 25 0 30 4 30 25 0 27 13 31 55 15 23 -9 25 -13 14 -26 -10 -13 -9 -16 9 -21 17 -4 21 -10 16 -30 -7 -25 22 -63 48 -63 17 0 38 -46 38 -82 0 -26 3 -28 40 -28 29 0 40 -4 40 -15 0 -8 7 -15 16 -15 18 0 34 -15 53 -52 8 -16 23 -28 33 -28 10 0 18 -6 18 -14 0 -9 7 -12 20 -9 17 5 20 0 20 -26 0 -30 2 -31 40 -31 22 0 40 -4 40 -10 0 -5 18 -10 40 -10 39 0 40 -1 40 -36 0 -19 4 -33 8 -30 5 3 9 -12 10 -33 3 -44 -6 -51 -64 -46 -22 1 -57 -1 -79 -5 -23 -4 65 -8 210 -9 137 -1 251 -5 255 -10 3 -5 199 -11 435 -14 339 -4 438 -3 470 8 37 12 29 13 -103 14 -146 1 -265 19 -309 47 -12 8 -29 14 -36 14 -8 0 -27 12 -42 28 -16 15 -25 20 -21 12 4 -8 0 -6 -9 5 -9 11 -19 20 -23 21 -4 0 -69 62 -146 137 -76 75 -143 137 -149 137 -6 0 -8 3 -5 6 7 7 -299 314 -313 314 -6 0 -7 5 -4 10 3 6 1 10 -5 10 -13 0 -60 52 -55 61 2 3 24 6 49 8 55 2 116 23 157 51 38 28 6 53 324 -245 72 -67 174 -162 228 -211 81 -73 96 -92 90 -109 -5 -11 -8 -44 -7 -74 1 -40 5 -57 19 -67 10 -8 15 -14 9 -14 -17 -1 78 -40 96 -40 50 0 130 59 130 96 0 12 52 14 295 14 211 0 295 -3 295 -11 0 -8 4 -8 13 -2 21 17 45 11 51 -13 12 -48 78 -94 132 -94 29 0 84 26 101 49 46 61 35 145 -25 186 -74 50 -169 25 -202 -55 -12 -30 -42 -41 -55 -20 -5 7 -11 8 -19 1 -7 -6 -118 -7 -299 -4 -266 6 -287 7 -287 24 0 30 -49 78 -90 89 -40 11 -85 5 -108 -13 -9 -7 -22 -2 -45 20 -18 16 -122 112 -232 214 -110 101 -234 217 -277 257 l-76 74 24 35 c23 34 54 121 54 150 0 7 4 13 8 13 4 0 138 -129 298 -287 159 -159 297 -294 306 -301 15 -12 29 -1 121 89 58 56 108 101 113 101 5 0 18 -29 30 -64 l21 -63 48 3 c27 1 51 4 53 7 3 3 0 22 -7 43 -7 20 -21 68 -32 106 l-20 70 38 38 c21 21 48 40 59 42 11 2 65 16 120 30 54 14 167 42 249 61 142 34 329 80 368 91 16 5 17 -25 17 -530 0 -503 1 -536 18 -537 24 -2 66 2 71 6 1 2 3 209 2 459 -1 408 1 456 15 456 14 0 14 1 0 16 -9 8 -16 26 -16 39 0 23 4 24 68 28 l67 3 -67 2 -68 2 0 89 c0 89 -1 90 -32 120 -38 36 -58 40 -51 11 10 -37 -5 -68 -39 -79 -18 -5 -125 -33 -236 -62 l-204 -51 -34 33 c-19 18 -34 35 -34 38 0 6 133 140 373 376 71 70 135 141 143 160 8 19 14 60 14 92 -1 114 -85 194 -204 193 -63 -1 -115 -35 -243 -160 -65 -63 -129 -123 -143 -134 -14 -10 82 87 212 215 198 196 238 241 247 274 39 145 -50 265 -197 265 -68 0 -109 -29 -311 -221 -95 -90 -212 -201 -259 -246 -160 -152 -109 -85 68 90 203 201 213 212 228 257 29 82 3 164 -71 224 -49 39 -141 48 -199 18z m-1010 -1331 c9 -5 30 -15 45 -22 26 -12 28 -17 22 -49 -11 -65 -35 -135 -54 -159 l-19 -25 -112 104 -112 104 22 18 c12 10 30 18 41 18 10 0 21 5 24 10 8 12 119 13 143 1z m-1118 -41 c0 -5 -18 -10 -40 -10 -22 0 -40 5 -40 10 0 6 18 10 40 10 22 0 40 -4 40 -10z m980 -140 l105 -100 -25 -19 c-29 -23 -87 -39 -168 -47 l-57 -5 -17 36 c-29 59 -19 165 19 203 7 7 13 18 13 23 0 24 33 0 130 -91z m1458 48 c22 -22 13 -35 -33 -45 -25 -6 -45 -8 -45 -5 0 8 52 62 60 62 3 0 11 -5 18 -12z m-1898 -644 c0 -8 -4 -12 -10 -9 -5 3 -10 13 -10 21 0 8 5 12 10 9 6 -3 10 -13 10 -21z m778 -421 c-10 -2 -28 -2 -40 0 -13 2 -5 4 17 4 22 1 32 -1 23 -4z"/>
<path d="M4079 5102 c5 -10 18 -25 27 -33 11 -9 9 -2 -6 19 -26 35 -36 42 -21 14z"/>
<path d="M4138 5038 c9 -9 7 -17 -6 -32 -12 -15 -9 -14 11 3 15 14 27 25 27 27 0 1 -10 4 -21 7 -16 4 -19 3 -11 -5z"/>
<path d="M3570 4975 c19 -19 36 -35 39 -35 3 0 -10 16 -29 35 -19 19 -36 35 -39 35 -3 0 10 -16 29 -35z"/>
<path d="M3785 4752 c36 -39 38 -44 26 -65 -11 -17 -7 -16 18 7 35 34 37 38 15 29 -10 -3 -31 9 -57 33 l-42 39 40 -43z"/>
<path d="M3200 4705 c30 -30 57 -55 59 -55 3 0 -19 25 -49 55 -30 30 -57 55 -59 55 -3 0 19 -25 49 -55z"/>
<path d="M3450 4445 c19 -19 36 -35 39 -35 3 0 -10 16 -29 35 -19 19 -36 35 -39 35 -3 0 10 -16 29 -35z"/>
<path d="M3573 4439 c-35 -22 -46 -37 -15 -20 22 13 58 40 52 41 -3 0 -20 -10 -37 -21z"/>
<path d="M2865 4400 c27 -27 51 -50 54 -50 3 0 -17 23 -44 50 -27 28 -51 50 -54 50 -3 0 17 -22 44 -50z"/>
<path d="M3492 4372 l-12 -25 25 23 c29 27 29 27 12 27 -7 0 -18 -12 -25 -25z"/>
<path d="M3440 4287 c0 -1 -4 -18 -10 -36 -5 -19 -6 -30 -1 -25 10 11 24 64 16 64 -3 0 -5 -1 -5 -3z"/>
<path d="M3030 4228 c41 -45 50 -53 50 -45 0 2 -21 23 -47 47 l-48 45 45 -47z"/>
<path d="M3208 4083 c-15 -14 -19 -14 -35 -2 -16 13 -17 12 -4 -3 11 -15 11 -21 0 -35 -7 -10 4 -2 24 16 20 19 37 36 37 38 0 6 -6 2 -22 -14z"/>
<path d="M6335 4001 c-33 -10 -94 -36 -135 -57 l-75 -39 135 -3 c151 -3 209 -22 68 -22 -48 0 -89 -3 -91 -7 -3 -5 62 -8 143 -8 110 0 152 -3 162 -13 11 -11 -6 -13 -99 -11 -62 1 -114 -1 -115 -6 -2 -4 58 -7 132 -6 l135 2 65 -49 c166 -126 247 -298 238 -506 -7 -174 -64 -293 -201 -422 l-67 -64 -298 -2 -297 -3 280 -5 280 -5 -55 -24 c-72 -31 -184 -50 -300 -51 l-95 0 25 -20 c70 -54 267 -106 364 -95 163 18 309 89 433 212 142 140 215 323 208 523 -4 121 -21 194 -71 299 -37 79 -122 192 -176 232 -17 13 -44 34 -59 47 -37 30 -165 88 -238 107 -79 20 -220 18 -296 -4z"/>
<path d="M6182 3841 c-11 -6 -10 -10 4 -15 10 -4 24 0 33 9 14 13 13 15 -4 15 -11 0 -26 -4 -33 -9z"/>
<path d="M5948 3833 c39 -2 105 -2 145 0 39 1 7 3 -73 3 -80 0 -112 -2 -72 -3z"/>
<path d="M5643 3823 c-16 -6 -17 -35 -1 -51 16 -16 23 -15 42 4 12 12 13 20 6 35 -11 19 -23 22 -47 12z"/>
<path d="M6418 3773 c12 -2 32 -2 45 0 12 2 2 4 -23 4 -25 0 -35 -2 -22 -4z"/>
<path d="M5810 3735 c0 -8 6 -15 14 -15 7 0 19 -7 26 -15 7 -8 16 -15 20 -15 5 0 -5 14 -22 30 -34 34 -38 36 -38 15z"/>
<path d="M5900 3729 c-11 -19 -10 -20 10 -9 11 6 18 15 15 21 -9 13 -13 11 -25 -12z"/>
<path d="M5972 3729 c-12 -19 -11 -19 8 -9 11 6 20 15 20 20 0 17 -15 11 -28 -11z"/>
<path d="M6208 3713 c79 -2 205 -2 280 0 75 1 11 3 -143 3 -154 0 -216 -2 -137 -3z"/>
<path d="M6030 3675 c-17 -19 -27 -22 -36 -14 -10 8 -26 0 -64 -32 -27 -23 -50 -44 -50 -46 0 -6 78 56 85 68 9 13 25 11 25 -4 0 -7 -19 -32 -43 -55 -41 -40 -70 -52 -81 -33 -4 5 -24 1 -46 -10 -50 -24 -52 -24 -92 8 l-33 27 29 -32 30 -32 -36 -38 c-36 -37 -68 -111 -68 -156 0 -36 27 -106 57 -144 15 -21 48 -44 82 -59 31 -13 64 -29 75 -34 13 -7 16 -7 11 0 -4 7 4 11 20 11 14 0 42 7 62 15 33 14 38 14 56 -2 19 -18 19 -17 7 4 -12 19 -11 24 20 50 l34 28 265 5 266 5 -262 3 c-145 1 -263 3 -263 5 0 1 7 23 15 49 24 79 7 152 -48 215 -17 20 -18 25 -6 40 12 16 12 17 -2 5 -14 -10 -25 -8 -67 11 l-51 24 42 41 43 42 29 -28 c27 -25 28 -25 7 -1 -27 31 -27 37 0 66 12 13 19 23 16 23 -2 0 -15 -11 -28 -25z m-48 -196 c75 -49 101 -163 55 -243 -15 -27 -39 -49 -77 -69 -53 -29 -57 -29 -113 -18 -94 20 -147 86 -147 183 1 73 35 129 100 161 49 25 133 19 182 -14z"/>
<path d="M5832 3377 c-46 -48 -17 -117 48 -117 29 0 43 6 54 22 23 32 20 71 -7 96 -30 28 -68 28 -95 -1z"/>
<path d="M5902 3658 c-29 -30 -34 -32 -55 -19 -22 14 -22 14 -3 -7 21 -24 36 -18 74 29 31 38 24 37 -16 -3z"/>
<path d="M6133 3624 l-22 -34 34 27 c36 29 44 43 23 43 -7 -1 -23 -16 -35 -36z"/>
<path d="M6247 3603 c-4 -3 -7 -13 -7 -22 0 -8 -12 -29 -27 -45 l-28 -31 31 28 c16 15 37 27 46 27 23 0 32 18 18 35 -14 16 -23 19 -33 8z"/>
<path d="M6084 3582 c-6 -4 -14 -16 -17 -26 -6 -15 -5 -17 6 -8 11 9 19 5 39 -16 14 -15 28 -35 32 -45 3 -10 11 -17 18 -15 17 6 22 28 6 28 -20 0 -82 66 -74 79 8 13 5 14 -10 3z"/>
<path d="M6267 3395 l-35 -40 -28 25 -29 25 24 -27 c24 -28 24 -28 5 -50 l-19 -23 24 20 23 20 42 -45 41 -45 155 5 155 5 -157 5 -158 5 -37 37 -37 37 24 26 c13 14 32 25 42 25 10 0 18 4 18 10 0 6 62 11 153 12 l152 3 -161 5 -161 5 -36 -40z"/>
<path d="M6242 3123 c-21 -21 -24 -26 -7 -12 16 15 39 31 50 37 11 6 14 12 7 12 -7 0 -30 -17 -50 -37z"/>
<path d="M6373 3153 c37 -2 96 -2 130 0 34 2 4 3 -68 3 -71 0 -99 -1 -62 -3z"/>
<path d="M6108 3063 c18 -2 45 -2 60 0 15 2 0 4 -33 4 -33 0 -45 -2 -27 -4z"/>
<path d="M5410 3033 c13 -18 25 -33 27 -33 8 0 -17 38 -33 51 -11 9 -9 2 6 -18z"/>
<path d="M5728 2993 c12 -2 32 -2 45 0 12 2 2 4 -23 4 -25 0 -35 -2 -22 -4z"/>
<path d="M6061 2981 c4 -10 53 -12 199 -11 107 0 196 3 199 5 2 3 -76 5 -175 5 -98 0 -190 3 -203 7 -16 4 -22 2 -20 -6z"/>
<path d="M5683 2933 c32 -2 81 -2 110 0 29 2 3 3 -58 3 -60 0 -84 -1 -52 -3z"/>
<path d="M5963 2913 c16 -17 29 -35 28 -40 -1 -4 4 -8 9 -8 18 0 6 19 -30 50 l-35 29 28 -31z"/>
<path d="M6213 2913 c75 -2 199 -2 275 0 75 1 13 3 -138 3 -151 0 -213 -2 -137 -3z"/>
<path d="M5080 2867 c0 -17 29 -63 57 -87 l28 -25 -26 30 c-15 17 -34 44 -42 60 -9 17 -16 26 -17 22z"/>
<path d="M5790 2850 c-12 -7 -12 -13 -4 -27 17 -28 49 -23 49 7 0 27 -21 36 -45 20z"/>
<path d="M6095 2842 c-21 -22 10 -29 38 -8 16 12 15 14 -7 14 -14 0 -28 -3 -31 -6z"/>
<path d="M3316 2781 c-3 -5 1 -15 10 -22 13 -10 17 -10 25 2 5 8 9 17 9 22 0 10 -38 9 -44 -2z"/>
<path d="M5713 2743 c9 -2 25 -2 35 0 9 3 1 5 -18 5 -19 0 -27 -2 -17 -5z"/>
<path d="M5238 2733 c12 -2 32 -2 45 0 12 2 2 4 -23 4 -25 0 -35 -2 -22 -4z"/>
<path d="M2840 2710 c0 -5 9 -10 20 -10 11 0 20 5 20 10 0 6 -9 10 -20 10 -11 0 -20 -4 -20 -10z"/>
</g>
<g id="layer108" fill="#f3fbf7" stroke="none">
<path d="M4290 5430 c0 -5 7 -10 16 -10 8 0 12 -4 9 -10 -3 -5 -31 -10 -61 -10 -30 0 -54 -4 -54 -10 0 -5 -9 -10 -19 -10 -14 0 -18 -5 -14 -20 3 -11 14 -20 24 -20 17 0 24 -11 20 -32 0 -5 11 -8 27 -8 21 0 30 -7 40 -30 8 -16 20 -30 27 -30 8 0 17 -9 20 -20 3 -11 13 -20 21 -20 8 0 14 -5 14 -11 0 -5 -5 -7 -12 -3 -7 4 -8 3 -4 -4 4 -6 14 -8 23 -5 11 4 14 2 11 -8 -6 -17 14 -60 37 -79 14 -11 17 -10 22 8 3 13 13 22 24 22 11 0 19 7 20 18 0 9 3 26 6 37 15 58 15 95 -1 101 -11 4 -14 14 -9 35 3 19 1 29 -6 29 -7 0 -9 5 -6 10 3 6 -3 10 -15 10 -12 0 -18 5 -15 10 3 6 -1 10 -10 10 -9 0 -13 5 -10 10 4 6 -8 10 -28 10 -26 0 -36 5 -40 20 -3 14 -14 20 -31 20 -14 0 -26 -4 -26 -10z m30 -110 c0 -11 -7 -20 -15 -20 -8 0 -15 9 -15 20 0 11 7 20 15 20 8 0 15 -9 15 -20z m90 0 c-11 -11 -27 -20 -35 -20 -8 0 -15 9 -15 20 0 16 7 20 35 20 l35 0 -20 -20z"/>
<path d="M4670 5209 c0 -5 -8 -9 -17 -8 -32 3 -44 -1 -38 -11 4 -6 -5 -10 -21 -10 -15 0 -24 -3 -21 -6 4 -4 -1 -14 -11 -23 -9 -9 -22 -29 -27 -46 -7 -21 -20 -33 -43 -40 -17 -5 -35 -17 -38 -27 -3 -10 -12 -18 -20 -18 -8 0 -12 -4 -9 -10 3 -5 2 -10 -3 -10 -13 0 -23 -26 -29 -74 -5 -36 -22 -66 -38 -66 -3 0 -16 -9 -28 -21 -14 -12 -31 -19 -45 -16 -17 3 -22 1 -18 -9 4 -11 -7 -14 -48 -14 -53 0 -91 -20 -66 -35 12 -8 14 -85 1 -85 -13 0 -19 103 -6 113 5 4 -6 6 -25 5 -32 -3 -35 -5 -32 -33 1 -16 5 -45 8 -63 4 -19 2 -50 -4 -70 -6 -21 -13 -53 -16 -73 -4 -36 -3 -37 32 -43 20 -3 40 -2 45 3 5 5 17 6 28 4 17 -5 21 -10 18 -29 0 -4 5 -11 13 -15 10 -7 10 -9 1 -9 -9 0 -13 -22 -13 -75 0 -72 1 -76 26 -85 14 -6 35 -10 47 -10 15 0 26 -10 35 -30 8 -16 20 -30 28 -30 7 0 22 -12 31 -27 31 -48 61 -73 88 -73 26 0 27 -2 23 -47 l-3 -48 97 0 c54 -1 101 -4 105 -8 4 -4 7 -54 7 -110 1 -114 -5 -107 80 -91 37 7 39 6 34 -14 -5 -17 -2 -22 12 -22 11 0 22 -4 25 -10 3 -5 19 -10 36 -10 16 0 29 -5 29 -12 0 -9 3 -9 12 0 7 7 20 12 31 12 15 0 18 -6 15 -37 -3 -37 -4 -38 -45 -39 -24 -1 -43 3 -43 8 0 6 -8 7 -17 4 -15 -5 -15 -4 1 9 18 13 15 20 -6 16 -5 0 -8 4 -8 9 0 6 -9 10 -20 10 -14 0 -20 -7 -20 -24 0 -13 -6 -27 -12 -29 -7 -3 -3 -6 10 -6 33 -1 27 -21 -7 -21 -24 0 -28 -3 -24 -20 3 -11 13 -20 22 -20 14 0 14 -2 1 -10 -11 -7 -4 -10 28 -10 23 0 42 5 42 10 0 6 23 10 50 10 28 0 50 5 50 10 0 6 13 10 29 10 17 0 33 5 36 10 3 6 28 10 55 10 31 0 63 8 85 20 20 11 53 20 74 20 22 0 41 4 43 9 2 6 22 11 45 12 23 2 40 6 37 11 -3 4 11 8 30 8 19 0 38 5 41 10 3 6 27 10 51 10 l46 0 -3 -447 c-1 -247 -1 -485 0 -529 l1 -81 32 -7 c22 -4 37 -2 47 9 10 10 11 15 3 15 -17 0 -17 171 0 188 9 9 9 12 0 12 -16 0 -15 37 1 44 7 4 8 8 2 11 -12 6 -14 694 -2 713 5 6 4 12 -1 12 -5 0 -9 37 -8 82 2 77 0 84 -25 110 -34 36 -53 37 -46 1 7 -38 -1 -53 -29 -53 -13 0 -24 -4 -24 -10 0 -5 -20 -10 -44 -10 -25 0 -48 -4 -51 -10 -3 -5 -15 -10 -26 -10 -10 0 -19 -4 -19 -10 0 -5 -13 -10 -30 -10 -16 0 -30 -5 -30 -11 0 -6 -10 -10 -22 -9 -48 4 -79 0 -73 -10 4 -6 -13 -10 -45 -10 -27 0 -59 -5 -70 -12 -15 -10 -24 -9 -44 2 -14 7 -24 15 -22 18 3 2 -6 16 -20 30 -29 33 -30 38 -3 45 15 4 20 11 16 21 -4 10 -1 16 9 16 8 0 12 5 9 10 -4 6 -3 10 2 9 20 -3 34 2 28 11 -3 6 -2 10 4 10 5 0 12 9 16 19 3 10 17 22 30 25 14 4 25 13 25 21 0 8 6 15 14 15 21 0 40 27 24 33 -8 3 -6 6 5 6 10 1 15 6 12 11 -3 6 1 10 9 10 9 0 16 4 16 8 0 18 38 52 59 52 11 0 22 6 22 13 1 6 2 19 3 27 0 8 9 16 20 18 22 5 87 67 79 76 -4 3 1 6 10 6 8 0 19 9 22 20 4 12 21 36 38 54 37 37 39 44 45 113 3 40 0 55 -15 70 -10 10 -25 33 -32 51 -10 25 -20 32 -40 32 -15 0 -33 9 -41 20 -18 25 -55 28 -46 4 5 -14 4 -15 -8 -5 -9 7 -17 8 -20 2 -3 -5 -1 -11 6 -13 14 -5 1 -28 -15 -27 -9 0 -9 2 0 6 10 3 10 8 -1 19 -17 17 -40 19 -30 2 5 -7 0 -9 -14 -6 -15 4 -32 -5 -61 -32 -22 -21 -37 -41 -33 -45 4 -5 -3 -5 -16 -2 -18 4 -21 3 -12 -8 11 -14 9 -17 -35 -41 -11 -6 -19 -16 -17 -22 1 -7 -7 -12 -18 -12 -11 0 -20 -5 -20 -11 0 -6 -7 -8 -16 -5 -8 3 -13 2 -9 -3 8 -13 -5 -41 -20 -41 -7 0 -30 -12 -51 -26 l-39 -26 33 34 c17 19 32 42 32 51 0 10 11 22 25 27 18 7 23 14 18 26 -5 13 -2 16 10 11 9 -3 23 0 31 8 7 8 17 11 22 7 5 -4 2 2 -6 12 -8 11 -10 17 -3 13 6 -4 14 -3 18 3 3 5 1 10 -4 10 -6 0 -11 7 -11 15 0 18 11 19 29 3 11 -11 12 -10 6 1 -6 11 -4 13 8 8 11 -4 17 -1 17 7 0 8 7 16 15 20 8 3 15 12 15 21 0 8 3 14 8 13 4 -2 8 1 9 5 3 11 30 37 38 37 12 0 34 27 28 34 -4 3 1 6 11 6 9 0 15 4 12 9 -3 5 1 14 9 21 10 9 15 9 15 1 0 -6 5 -11 12 -11 6 0 9 3 5 6 -3 4 1 13 9 21 8 8 12 19 9 24 -4 5 1 9 9 9 9 0 23 17 32 38 19 43 27 122 12 122 -5 0 -8 6 -5 13 5 14 -33 87 -46 87 -12 0 -37 26 -31 32 2 3 -34 6 -81 7 -80 2 -145 -12 -145 -31 0 -4 -12 -19 -27 -35 -16 -15 -27 -33 -25 -40 2 -7 -6 -13 -18 -13 -21 0 -153 -124 -142 -134 3 -3 -1 -6 -9 -6 -8 0 -21 -9 -29 -21 -31 -43 -48 -59 -64 -59 -10 0 -14 -4 -11 -10 3 -5 1 -10 -5 -10 -7 0 -25 -13 -40 -30 -15 -16 -33 -30 -40 -30 -6 0 -8 -5 -4 -11 4 -7 1 -10 -7 -7 -7 2 -36 -17 -64 -44 -56 -54 -86 -66 -37 -15 35 37 40 50 15 40 -11 -4 -14 -3 -9 5 4 7 18 12 32 12 14 0 22 4 19 10 -3 6 -1 10 5 10 15 0 40 25 40 41 0 6 10 20 22 30 11 11 18 19 14 19 -4 0 -1 7 8 15 8 8 19 15 25 15 6 0 11 5 11 10 0 6 6 10 14 10 7 0 19 7 26 15 9 11 10 15 1 15 -8 0 -7 5 3 15 8 8 21 15 28 15 8 0 20 9 28 20 8 11 20 20 27 20 6 0 15 9 18 20 3 11 14 27 23 37 24 23 24 143 0 166 -9 10 -20 26 -23 37 -3 11 -13 20 -21 20 -8 0 -14 5 -14 10 0 6 -7 10 -15 10 -8 0 -15 5 -15 10 0 6 -28 10 -65 10 -39 0 -65 -4 -65 -11z m447 -169 c1 -11 -2 -20 -8 -20 -5 0 -9 9 -9 20 0 11 4 20 8 20 4 0 8 -9 9 -20z m183 -50 c0 -16 -4 -30 -10 -30 -5 0 -10 14 -10 30 0 17 5 30 10 30 6 0 10 -13 10 -30z m-80 -20 c0 -5 -16 -10 -35 -10 -19 0 -35 5 -35 10 0 6 16 10 35 10 19 0 35 -4 35 -10z m-260 -100 c0 -5 -4 -10 -9 -10 -5 0 -13 -9 -16 -20 -7 -23 -35 -27 -35 -5 0 9 6 22 13 30 14 16 47 20 47 5z m-280 -60 c0 -5 -9 -10 -20 -10 -11 0 -20 5 -20 10 0 6 9 10 20 10 11 0 20 -4 20 -10z m120 -110 c0 -11 -4 -20 -10 -20 -5 0 -10 9 -10 20 0 11 5 20 10 20 6 0 10 -9 10 -20z m-40 -50 c0 -5 -9 -10 -20 -10 -11 0 -20 5 -20 10 0 6 9 10 20 10 11 0 20 -4 20 -10z m493 -96 c12 -12 -6 -34 -29 -34 -27 0 -29 5 -11 25 13 15 30 19 40 9z m187 -34 c0 -13 -7 -20 -20 -20 -11 0 -20 5 -20 10 0 6 -14 10 -31 10 -17 0 -28 4 -24 10 3 6 26 10 51 10 37 0 44 -3 44 -20z m20 -60 c0 -11 -4 -20 -10 -20 -5 0 -10 9 -10 20 0 11 5 20 10 20 6 0 10 -9 10 -20z"/>
<path d="M4054 4825 c3 -22 13 -28 32 -21 13 5 14 9 4 21 -16 19 -39 19 -36 0z"/>
<path d="M4021 4518 c8 -16 6 -18 -21 -18 -16 0 -30 -4 -30 -10 0 -5 19 -10 43 -10 38 0 42 3 43 25 1 14 -2 22 -7 19 -5 -3 -9 -1 -9 4 0 5 -7 9 -14 9 -11 0 -13 -5 -5 -19z"/>
<path d="M3728 4488 c9 -9 15 -9 24 0 9 9 7 12 -12 12 -19 0 -21 -3 -12 -12z"/>
<path d="M3770 4458 c0 -13 3 -33 6 -45 5 -20 7 -20 25 -5 10 9 19 29 19 44 0 23 -4 28 -25 28 -19 0 -25 -5 -25 -22z"/>
<path d="M2165 4010 c-11 -5 -44 -9 -73 -9 -33 -1 -51 -5 -47 -11 3 -5 -1 -10 -10 -10 -10 0 -13 -5 -9 -12 4 -6 3 -8 -3 -5 -5 3 -22 -1 -37 -9 -16 -7 -37 -14 -47 -14 -11 0 -19 -4 -19 -10 0 -5 -7 -10 -15 -10 -8 0 -15 -4 -15 -10 0 -5 -6 -10 -14 -10 -8 0 -16 -5 -18 -10 -2 -6 -13 -12 -25 -13 -12 0 -19 -5 -17 -9 3 -4 0 -8 -6 -8 -6 0 -8 -4 -5 -10 3 -5 -3 -10 -15 -10 -12 0 -24 -9 -30 -22 -5 -13 -22 -37 -39 -54 -16 -18 -27 -35 -24 -38 4 -3 -1 -6 -11 -6 -9 0 -14 -4 -11 -10 3 -5 1 -10 -5 -10 -6 0 -8 -4 -5 -10 3 -5 1 -10 -4 -10 -6 0 -11 -8 -11 -19 0 -10 -8 -29 -18 -42 -32 -42 -60 -112 -68 -174 -9 -69 -9 -236 0 -280 3 -16 8 -47 10 -68 3 -21 9 -44 14 -50 5 -7 12 -24 16 -39 3 -16 13 -28 21 -28 8 0 15 -9 15 -20 0 -11 5 -20 11 -20 5 0 7 -4 4 -10 -3 -5 -1 -10 4 -10 6 0 11 -9 11 -20 0 -11 5 -20 11 -20 6 0 17 -7 25 -15 9 -8 12 -15 7 -15 -4 0 5 -11 20 -25 15 -14 27 -30 27 -35 0 -6 9 -10 20 -10 11 0 20 -4 20 -10 0 -5 7 -10 15 -10 8 0 14 -3 14 -7 -3 -21 3 -33 17 -33 8 0 13 -4 10 -8 -3 -5 1 -9 9 -10 8 -1 22 -3 30 -4 8 -1 17 -10 21 -20 3 -10 14 -18 24 -18 10 0 21 -6 23 -12 4 -10 6 -10 6 0 1 6 6 12 12 12 5 0 7 -4 4 -10 -3 -5 3 -10 14 -10 11 0 23 -4 26 -10 4 -6 -1 -7 -12 -3 -10 3 -15 3 -11 -2 4 -4 30 -8 57 -8 27 -1 48 -4 45 -8 -8 -14 248 -15 262 -1 7 6 22 12 34 12 12 0 18 5 15 10 -4 6 5 10 19 10 14 0 26 5 26 10 0 6 6 10 14 10 20 0 29 17 15 26 -8 5 -9 3 -4 -6 6 -10 -2 -11 -36 -6 -24 3 -75 7 -114 7 -42 1 -75 7 -83 15 -8 9 -24 11 -44 7 -22 -4 -29 -3 -24 5 5 8 -2 12 -18 12 -14 0 -26 5 -26 10 0 6 -7 10 -15 10 -8 0 -23 8 -33 18 -10 9 -29 26 -43 37 -22 18 -22 18 -9 1 14 -18 14 -18 -7 -6 -11 8 -19 20 -16 27 4 9 0 11 -13 6 -12 -4 -15 -3 -10 5 4 7 1 12 -8 12 -9 0 -16 5 -16 10 0 6 -9 10 -21 10 -11 0 -17 5 -14 10 3 6 1 10 -4 10 -6 0 -11 7 -11 15 0 8 -11 30 -24 50 -14 20 -27 49 -31 65 -4 18 -13 30 -22 30 -11 0 -14 7 -11 25 3 14 1 22 -5 18 -5 -3 -6 3 -2 16 3 12 2 21 -4 21 -5 0 -10 8 -10 18 -2 44 -6 62 -13 62 -12 0 -10 144 2 156 5 5 11 30 13 56 1 25 8 52 15 61 9 10 9 16 2 19 -8 2 -8 10 -1 28 21 47 57 102 74 112 9 5 17 18 17 28 0 11 6 20 14 20 7 0 16 9 19 20 3 11 19 28 36 37 17 10 31 24 31 32 0 7 6 11 14 8 8 -3 26 8 40 24 15 16 40 32 56 36 17 3 30 10 30 15 0 6 6 8 14 5 8 -3 17 1 20 9 3 8 18 14 35 14 16 0 33 4 36 10 3 5 27 10 53 9 161 -1 193 1 198 16 4 8 11 12 18 9 6 -3 0 4 -14 15 -14 11 -31 21 -39 21 -23 0 -81 23 -81 32 0 4 -22 8 -50 8 -27 0 -50 5 -50 10 0 12 -107 12 -135 0z"/>
<path d="M6445 4010 c4 -6 -17 -10 -57 -10 -52 0 -66 -4 -78 -20 -9 -13 -26 -20 -48 -20 -22 0 -31 -4 -26 -12 4 -6 3 -8 -4 -4 -6 3 -22 1 -36 -5 l-26 -12 26 -14 c16 -8 60 -13 113 -13 48 0 91 -3 94 -7 4 -3 31 -8 59 -9 29 -2 54 -8 56 -13 2 -6 10 -11 18 -11 8 0 14 -4 14 -9 0 -11 55 -31 87 -31 13 0 22 -4 18 -9 -3 -5 4 -16 15 -24 11 -7 17 -17 13 -20 -3 -4 4 -7 16 -7 12 0 19 -4 16 -10 -3 -5 3 -10 13 -10 24 0 48 -25 32 -35 -15 -9 -2 -25 21 -25 11 0 17 -4 14 -10 -3 -5 5 -21 19 -34 21 -22 54 -94 47 -105 -2 -2 2 -7 7 -10 5 -3 12 -26 15 -51 3 -24 10 -46 16 -48 13 -4 16 -222 3 -222 -5 0 -9 -6 -10 -12 -7 -67 -18 -109 -35 -143 -12 -22 -22 -44 -22 -50 0 -5 -9 -20 -21 -31 -11 -12 -26 -35 -33 -53 -10 -22 -20 -31 -36 -31 -20 0 -39 -28 -36 -52 0 -4 -5 -5 -13 -2 -7 3 -19 -2 -26 -11 -7 -8 -19 -15 -26 -15 -8 0 -14 -4 -14 -10 0 -5 -9 -10 -20 -10 -11 0 -29 -9 -40 -20 -11 -11 -29 -20 -39 -20 -11 0 -23 -4 -26 -10 -3 -5 -22 -10 -41 -10 -20 0 -43 -7 -51 -16 -13 -13 -34 -15 -120 -11 -96 5 -103 4 -103 -14 0 -14 7 -19 26 -19 14 0 23 -4 20 -9 -3 -5 11 -11 32 -14 74 -11 127 -25 107 -27 -11 -2 12 -6 50 -11 87 -10 173 -2 239 22 28 11 59 19 69 19 21 0 49 24 40 34 -4 3 3 6 15 6 12 0 22 5 22 10 0 6 9 10 21 10 11 0 17 5 14 10 -3 6 2 10 13 10 20 0 134 104 125 114 -4 3 4 6 17 6 13 0 20 3 17 7 -4 3 1 12 11 19 9 7 17 16 17 21 0 18 28 73 37 73 5 0 6 5 3 10 -3 6 -2 10 4 10 8 0 18 19 26 50 1 3 7 17 12 31 6 14 17 51 24 82 8 31 16 57 19 57 11 0 -18 312 -30 320 -9 6 -61 130 -62 148 -1 6 -7 12 -15 12 -14 0 -34 39 -26 53 2 4 -2 7 -10 7 -16 0 -58 46 -50 54 4 3 -1 6 -10 6 -15 0 -22 11 -18 33 0 4 -6 7 -15 7 -9 0 -12 5 -8 12 4 6 3 8 -3 5 -5 -3 -21 5 -36 19 -14 13 -30 24 -35 24 -18 0 -62 27 -55 33 3 4 -3 7 -15 7 -12 0 -22 5 -22 10 0 6 -7 10 -16 10 -8 0 -22 7 -30 15 -8 8 -21 12 -29 9 -8 -4 -15 -1 -15 5 0 6 -19 11 -46 11 -27 0 -43 4 -39 10 4 6 -22 10 -70 10 -48 0 -74 -4 -70 -10z"/>
<path d="M4423 3987 c3 -15 30 -47 39 -47 5 0 8 11 8 24 0 17 -7 25 -25 28 -13 3 -23 1 -22 -5z"/>
<path d="M3723 3825 c4 -8 2 -17 -3 -20 -6 -4 -10 -11 -10 -18 0 -15 29 25 30 41 0 6 -5 12 -11 12 -6 0 -9 -7 -6 -15z"/>
<path d="M4603 3832 c-29 -4 -29 -13 -2 -36 24 -20 39 -11 30 19 -4 14 -13 19 -28 17z"/>
<path d="M5643 3823 c-7 -3 -13 -14 -13 -25 0 -14 6 -19 22 -16 13 2 24 10 26 19 3 18 -15 29 -35 22z"/>
<path d="M3420 3791 c0 -6 9 -16 20 -24 11 -8 17 -17 13 -20 -3 -4 -1 -7 6 -7 7 0 25 -13 39 -28 40 -42 79 -65 87 -52 4 7 -2 14 -14 17 -12 3 -21 9 -21 13 0 4 -9 10 -21 13 -12 3 -18 10 -15 16 4 6 -10 26 -31 45 -37 35 -63 45 -63 27z"/>
<path d="M3686 3778 c-3 -13 -6 -33 -6 -46 0 -34 -42 -93 -62 -88 -12 3 -18 -2 -18 -14 0 -17 -41 -54 -86 -78 -12 -6 -47 -12 -78 -13 -31 -1 -56 -6 -56 -11 0 -12 138 -10 145 2 3 6 14 10 25 10 10 0 31 13 48 28 16 15 34 26 40 24 5 -1 12 9 16 23 4 14 11 25 16 25 6 0 10 9 10 20 0 11 4 20 8 20 4 0 9 11 10 26 1 14 6 33 11 42 6 11 5 23 -4 35 -12 16 -13 16 -19 -5z"/>
<path d="M4690 3620 c-6 -11 -7 -20 -3 -20 4 0 2 -4 -6 -9 -10 -7 -7 -9 12 -8 14 1 23 5 20 10 -2 4 3 7 11 7 20 0 20 7 2 26 -19 18 -23 18 -36 -6z"/>
<path d="M3660 3578 c0 -20 119 -138 139 -138 8 0 12 -3 8 -6 -10 -11 82 -96 107 -98 17 -2 23 1 19 10 -3 8 -13 14 -24 14 -22 0 -69 45 -69 65 0 8 -4 15 -8 15 -4 0 -27 18 -50 40 -22 22 -44 40 -47 40 -3 0 -21 17 -40 37 -24 26 -35 32 -35 21z"/>
<path d="M5840 3540 c-55 -6 -31 -20 35 -20 24 0 47 -4 50 -10 4 -6 11 -5 20 3 27 25 -20 37 -105 27z"/>
<path d="M4640 3500 l0 -40 -40 0 c-30 0 -40 -4 -40 -16 0 -8 4 -13 8 -10 9 5 37 -46 46 -84 10 -44 23 -54 67 -51 15 1 46 51 31 51 -11 0 -49 128 -51 173 -2 36 -21 15 -21 -23z"/>
<path d="M5744 3495 c-3 -13 -9 -24 -13 -23 -18 6 -51 -25 -51 -47 0 -14 -4 -25 -8 -25 -5 0 -10 -27 -11 -60 -1 -33 2 -60 7 -60 5 0 12 -18 16 -40 7 -42 36 -58 36 -20 0 11 -4 20 -9 20 -4 0 -13 24 -19 53 -9 45 -8 61 10 114 17 49 25 61 40 58 16 -3 23 6 19 28 0 4 10 7 24 7 14 0 25 5 25 10 0 6 -13 10 -30 10 -23 0 -31 -5 -36 -25z"/>
<path d="M5980 3500 c0 -11 6 -20 13 -20 7 0 19 -10 27 -21 8 -12 21 -27 28 -35 6 -7 12 -24 12 -38 0 -14 5 -26 10 -26 7 0 7 -6 0 -19 -5 -11 -10 -36 -10 -55 0 -43 -18 -86 -37 -86 -7 0 -13 -4 -13 -10 0 -5 12 -10 26 -10 14 0 23 4 19 10 -3 6 0 10 8 10 10 0 17 14 20 43 3 23 8 54 12 69 9 35 -2 81 -17 72 -8 -5 -9 2 -5 23 5 25 0 37 -32 72 -41 45 -61 52 -61 21z"/>
<path d="M4480 3390 c0 -16 5 -30 10 -30 6 0 10 14 10 30 0 17 -4 30 -10 30 -5 0 -10 -13 -10 -30z"/>
<path d="M5833 3365 c-16 -18 -16 -27 -1 -60 9 -21 18 -25 54 -25 29 0 44 5 48 16 10 26 7 55 -8 70 -19 18 -77 18 -93 -1z"/>
<path d="M3930 3310 c0 -5 6 -10 14 -10 8 0 16 -6 19 -12 2 -7 7 -10 11 -7 3 3 4 14 0 23 -7 17 -44 23 -44 6z"/>
<path d="M3985 3280 c-7 -11 23 -60 36 -60 19 0 17 19 -6 44 -13 14 -27 22 -30 16z"/>
<path d="M4070 3201 c0 -22 38 -63 52 -55 4 3 8 -1 8 -9 0 -8 9 -24 20 -37 17 -20 20 -21 26 -6 7 17 -40 67 -60 63 -5 -1 -10 5 -11 14 0 8 -8 23 -17 33 -17 17 -18 16 -18 -3z"/>
<path d="M5730 3192 c0 -5 8 -19 19 -30 18 -22 71 -31 71 -12 0 6 -13 10 -30 10 -23 0 -30 4 -30 20 0 11 -7 20 -15 20 -8 0 -15 -4 -15 -8z"/>
<path d="M5935 3150 c-3 -5 -30 -10 -58 -11 -61 -1 -114 -17 -59 -18 17 -1 32 -5 32 -11 0 -5 16 -10 35 -10 34 0 47 13 23 24 -7 3 -1 3 15 0 37 -8 77 3 77 21 0 17 -55 21 -65 5z"/>
<path d="M4197 3073 c-9 -8 12 -33 28 -33 15 0 26 -24 20 -42 -2 -7 -6 -34 -9 -59 -3 -36 0 -52 14 -67 14 -15 16 -22 7 -32 -9 -10 -9 -11 1 -6 7 4 19 2 27 -4 19 -15 118 -16 123 -1 2 6 10 11 18 11 9 0 12 5 9 10 -3 6 -1 10 5 10 17 0 40 26 40 45 0 14 29 16 290 14 160 0 293 -5 295 -10 3 -4 21 -6 40 -4 27 4 33 2 29 -10 -4 -10 0 -15 14 -15 13 0 24 -10 31 -30 7 -20 17 -30 30 -30 12 0 21 -4 21 -10 0 -15 76 -12 89 3 6 8 8 17 4 20 -3 4 1 7 10 7 10 0 17 5 17 10 0 6 6 10 14 10 33 0 34 65 3 111 -13 19 -26 41 -29 50 -7 19 -57 29 -110 21 -29 -3 -39 -11 -49 -33 -6 -16 -16 -29 -21 -29 -5 0 -6 -4 -3 -10 3 -5 -1 -10 -9 -10 -9 0 -13 -7 -11 -20 2 -11 0 -20 -6 -20 -5 0 -9 5 -9 10 0 6 -113 10 -317 10 l-318 0 -19 33 c-11 17 -20 36 -20 41 -2 30 -146 65 -146 36 0 -18 -55 -11 -70 10 -15 21 -23 24 -33 13z"/>
<path d="M5796 2843 c-8 -19 14 -37 28 -23 10 10 1 40 -13 40 -5 0 -12 -8 -15 -17z"/>
</g>


</svg>